<?xml version="1.0" encoding="UTF-8" standalone="no"?>
<!DOCTYPE svg PUBLIC "-//W3C//DTD SVG 1.1//EN"
 "http://www.w3.org/Graphics/SVG/1.1/DTD/svg11.dtd">
<!-- Generated by graphviz version 2.40.1 (20161225.0304)
 -->
<!-- Title: %3 Pages: 1 -->
<svg width="870pt" height="521pt"
 viewBox="0.00 0.00 870.00 521.00" xmlns="http://www.w3.org/2000/svg" xmlns:xlink="http://www.w3.org/1999/xlink">
<g id="graph0" class="graph" transform="scale(1 1) rotate(0) translate(4 517)">
<title>%3</title>
<polygon fill="#ffffff" stroke="transparent" points="-4,4 -4,-517 866,-517 866,4 -4,4"/>
<g id="clust4" class="cluster">
<title>cluster[root] meta.count&#45;boundary (count boundary fixup)_output_[root] module.certificate.output.arn</title>
</g>
<!-- [root] data.aws_route53_zone.cq -->
<g id="node_0" class="node">
<title>[root] data.aws_route53_zone.cq</title>
<polygon fill="none" stroke="#000000" points="427,-103.5 427,-118.5 509,-118.5 509,-103.5 427,-103.5"/>
<text text-anchor="start" x="429.5938" y="-109.1" font-family="courier new" font-size="8.00" fill="#000000">aws_route53_zone</text>
<polygon fill="none" stroke="#000000" points="427,-88.5 427,-103.5 509,-103.5 509,-88.5 427,-88.5"/>
<text text-anchor="start" x="463.1992" y="-94.1" font-family="courier new" font-size="8.00" fill="#000000">cq</text>
</g>
<!-- [root] provider.aws -->
<g id="node_10" class="node">
<title>[root] provider.aws</title>
<polygon fill="none" stroke="#000000" points="472,-22.5 472,-37.5 516,-37.5 516,-22.5 472,-22.5"/>
<text text-anchor="start" x="474.7969" y="-28.1" font-family="courier new" font-size="8.00" fill="#000000">provider</text>
<polygon fill="none" stroke="#000000" points="472,-7.5 472,-22.5 516,-22.5 516,-7.5 472,-7.5"/>
<text text-anchor="start" x="486.7988" y="-13.1" font-family="courier new" font-size="8.00" fill="#000000">aws</text>
</g>
<!-- [root] data.aws_route53_zone.cq&#45;&gt;[root] provider.aws -->
<g id="edge_0" class="edge">
<title>[root] data.aws_route53_zone.cq&#45;&gt;[root] provider.aws</title>
<path fill="none" stroke="#000000" d="M473.8998,-85.1198C477.214,-74.7948 481.4163,-61.703 485.1207,-50.1624"/>
<polygon fill="#000000" stroke="#000000" points="488.4893,-51.1196 488.2131,-40.5284 481.8242,-48.9802 488.4893,-51.1196"/>
</g>
<!-- [root] meta.count&#45;boundary (count boundary fixup) -->
<g id="node_11" class="node">
<title>[root] meta.count&#45;boundary (count boundary fixup)</title>
<polygon fill="none" stroke="#000000" points="416,-423 416,-438 489,-438 489,-423 416,-423"/>
<text text-anchor="start" x="442.8984" y="-428.6" font-family="courier new" font-size="8.00" fill="#000000">meta</text>
<polygon fill="none" stroke="#000000" points="416,-408 416,-423 489,-423 489,-408 416,-408"/>
<text text-anchor="start" x="418.8945" y="-413.6" font-family="courier new" font-size="8.00" fill="#000000">count&#45;boundary</text>
</g>
<!-- [root] output.certificate_arn -->
<g id="node_13" class="node">
<title>[root] output.certificate_arn</title>
<polygon fill="none" stroke="#000000" points="768,-346.5 768,-361.5 846,-361.5 846,-346.5 768,-346.5"/>
<text text-anchor="start" x="792.5977" y="-352.1" font-family="courier new" font-size="8.00" fill="#000000">output</text>
<polygon fill="none" stroke="#000000" points="768,-331.5 768,-346.5 846,-346.5 846,-331.5 768,-331.5"/>
<text text-anchor="start" x="770.9941" y="-337.1" font-family="courier new" font-size="8.00" fill="#000000">certificate_arn</text>
</g>
<!-- [root] meta.count&#45;boundary (count boundary fixup)&#45;&gt;[root] output.certificate_arn -->
<g id="edge_6" class="edge">
<title>[root] meta.count&#45;boundary (count boundary fixup)&#45;&gt;[root] output.certificate_arn</title>
<path fill="none" stroke="#000000" d="M488.8781,-420.8996C547.5095,-416.6898 664.9666,-404.6803 759,-372.5 762.0487,-371.4567 765.1343,-370.2318 768.1931,-368.8922"/>
<polygon fill="#000000" stroke="#000000" points="769.6993,-372.0516 777.2261,-364.5951 766.6922,-365.7304 769.6993,-372.0516"/>
</g>
<!-- [root] module.certificate.aws_acm_certificate_validation.len_1 -->
<g id="node_2" class="node">
<title>[root] module.certificate.aws_acm_certificate_validation.len_1</title>
<polygon fill="none" stroke="#000000" points="0,-353.5 0,-368.5 150,-368.5 150,-353.5 0,-353.5"/>
<text text-anchor="start" x="38.9941" y="-359.1" font-family="courier new" font-size="8.00" fill="#000000">(M) certificate</text>
<polygon fill="none" stroke="#000000" points="0,-338.5 0,-353.5 150,-353.5 150,-338.5 0,-338.5"/>
<text text-anchor="start" x="2.9883" y="-344.1" font-family="courier new" font-size="8.00" fill="#000000">aws_acm_certificate_validation</text>
<polygon fill="none" stroke="#000000" points="0,-323.5 0,-338.5 150,-338.5 150,-323.5 0,-323.5"/>
<text text-anchor="start" x="62.998" y="-329.1" font-family="courier new" font-size="8.00" fill="#000000">len_1</text>
</g>
<!-- [root] meta.count&#45;boundary (count boundary fixup)&#45;&gt;[root] module.certificate.aws_acm_certificate_validation.len_1 -->
<g id="edge_1" class="edge">
<title>[root] meta.count&#45;boundary (count boundary fixup)&#45;&gt;[root] module.certificate.aws_acm_certificate_validation.len_1</title>
<path fill="none" stroke="#000000" d="M415.3514,-407.7557C412.2184,-406.7292 409.0729,-405.7909 406,-405 298.7706,-377.4018 267.1629,-396.1767 159,-372.5 157.5553,-372.1838 156.0997,-371.8542 154.636,-371.5129"/>
<polygon fill="#000000" stroke="#000000" points="155.4374,-368.1057 144.8896,-369.1034 153.7574,-374.9011 155.4374,-368.1057"/>
</g>
<!-- [root] module.certificate.aws_acm_certificate_validation.len_2 -->
<g id="node_3" class="node">
<title>[root] module.certificate.aws_acm_certificate_validation.len_2</title>
<polygon fill="none" stroke="#000000" points="168,-353.5 168,-368.5 318,-368.5 318,-353.5 168,-353.5"/>
<text text-anchor="start" x="206.9941" y="-359.1" font-family="courier new" font-size="8.00" fill="#000000">(M) certificate</text>
<polygon fill="none" stroke="#000000" points="168,-338.5 168,-353.5 318,-353.5 318,-338.5 168,-338.5"/>
<text text-anchor="start" x="170.9883" y="-344.1" font-family="courier new" font-size="8.00" fill="#000000">aws_acm_certificate_validation</text>
<polygon fill="none" stroke="#000000" points="168,-323.5 168,-338.5 318,-338.5 318,-323.5 168,-323.5"/>
<text text-anchor="start" x="230.998" y="-329.1" font-family="courier new" font-size="8.00" fill="#000000">len_2</text>
</g>
<!-- [root] meta.count&#45;boundary (count boundary fixup)&#45;&gt;[root] module.certificate.aws_acm_certificate_validation.len_2 -->
<g id="edge_2" class="edge">
<title>[root] meta.count&#45;boundary (count boundary fixup)&#45;&gt;[root] module.certificate.aws_acm_certificate_validation.len_2</title>
<path fill="none" stroke="#000000" d="M415.3777,-408.5614C412.2103,-407.3454 409.0513,-406.1443 406,-405 376.9143,-394.0925 344.756,-382.4606 316.7427,-372.4657"/>
<polygon fill="#000000" stroke="#000000" points="317.6135,-369.0605 307.0188,-369.0025 315.2649,-375.6548 317.6135,-369.0605"/>
</g>
<!-- [root] module.certificate.aws_acm_certificate_validation.len_3 -->
<g id="node_4" class="node">
<title>[root] module.certificate.aws_acm_certificate_validation.len_3</title>
<polygon fill="none" stroke="#000000" points="336,-353.5 336,-368.5 486,-368.5 486,-353.5 336,-353.5"/>
<text text-anchor="start" x="374.9941" y="-359.1" font-family="courier new" font-size="8.00" fill="#000000">(M) certificate</text>
<polygon fill="none" stroke="#000000" points="336,-338.5 336,-353.5 486,-353.5 486,-338.5 336,-338.5"/>
<text text-anchor="start" x="338.9883" y="-344.1" font-family="courier new" font-size="8.00" fill="#000000">aws_acm_certificate_validation</text>
<polygon fill="none" stroke="#000000" points="336,-323.5 336,-338.5 486,-338.5 486,-323.5 336,-323.5"/>
<text text-anchor="start" x="398.998" y="-329.1" font-family="courier new" font-size="8.00" fill="#000000">len_3</text>
</g>
<!-- [root] meta.count&#45;boundary (count boundary fixup)&#45;&gt;[root] module.certificate.aws_acm_certificate_validation.len_3 -->
<g id="edge_3" class="edge">
<title>[root] meta.count&#45;boundary (count boundary fixup)&#45;&gt;[root] module.certificate.aws_acm_certificate_validation.len_3</title>
<path fill="none" stroke="#000000" d="M442.2836,-404.8706C437.9856,-396.8512 432.8036,-387.1823 427.9044,-378.0412"/>
<polygon fill="#000000" stroke="#000000" points="430.9515,-376.3172 423.1427,-369.1565 424.7817,-379.6239 430.9515,-376.3172"/>
</g>
<!-- [root] module.certificate.aws_acm_certificate_validation.len_4 -->
<g id="node_5" class="node">
<title>[root] module.certificate.aws_acm_certificate_validation.len_4</title>
<polygon fill="none" stroke="#000000" points="504,-353.5 504,-368.5 654,-368.5 654,-353.5 504,-353.5"/>
<text text-anchor="start" x="542.9941" y="-359.1" font-family="courier new" font-size="8.00" fill="#000000">(M) certificate</text>
<polygon fill="none" stroke="#000000" points="504,-338.5 504,-353.5 654,-353.5 654,-338.5 504,-338.5"/>
<text text-anchor="start" x="506.9883" y="-344.1" font-family="courier new" font-size="8.00" fill="#000000">aws_acm_certificate_validation</text>
<polygon fill="none" stroke="#000000" points="504,-323.5 504,-338.5 654,-338.5 654,-323.5 504,-323.5"/>
<text text-anchor="start" x="566.998" y="-329.1" font-family="courier new" font-size="8.00" fill="#000000">len_4</text>
</g>
<!-- [root] meta.count&#45;boundary (count boundary fixup)&#45;&gt;[root] module.certificate.aws_acm_certificate_validation.len_4 -->
<g id="edge_4" class="edge">
<title>[root] meta.count&#45;boundary (count boundary fixup)&#45;&gt;[root] module.certificate.aws_acm_certificate_validation.len_4</title>
<path fill="none" stroke="#000000" d="M482.0972,-404.8706C497.2132,-395.7653 515.8595,-384.5334 532.7454,-374.362"/>
<polygon fill="#000000" stroke="#000000" points="534.6271,-377.3145 541.3872,-369.1565 531.0152,-371.3183 534.6271,-377.3145"/>
</g>
<!-- [root] module.certificate.output.id -->
<g id="node_12" class="node">
<title>[root] module.certificate.output.id</title>
<polygon fill="none" stroke="#000000" points="672,-353.5 672,-368.5 750,-368.5 750,-353.5 672,-353.5"/>
<text text-anchor="start" x="674.9941" y="-359.1" font-family="courier new" font-size="8.00" fill="#000000">(M) certificate</text>
<polygon fill="none" stroke="#000000" points="672,-338.5 672,-353.5 750,-353.5 750,-338.5 672,-338.5"/>
<text text-anchor="start" x="696.5977" y="-344.1" font-family="courier new" font-size="8.00" fill="#000000">output</text>
<polygon fill="none" stroke="#000000" points="672,-323.5 672,-338.5 750,-338.5 750,-323.5 672,-323.5"/>
<text text-anchor="start" x="706.1992" y="-329.1" font-family="courier new" font-size="8.00" fill="#000000">id</text>
</g>
<!-- [root] meta.count&#45;boundary (count boundary fixup)&#45;&gt;[root] module.certificate.output.id -->
<g id="edge_5" class="edge">
<title>[root] meta.count&#45;boundary (count boundary fixup)&#45;&gt;[root] module.certificate.output.id</title>
<path fill="none" stroke="#000000" d="M488.7076,-417.2218C529.4955,-410.1525 597.1814,-396.4873 662.2571,-372.3995"/>
<polygon fill="#000000" stroke="#000000" points="663.7252,-375.5861 671.836,-368.7695 661.2446,-369.0404 663.7252,-375.5861"/>
</g>
<!-- [root] provider.aws (close) -->
<g id="node_18" class="node">
<title>[root] provider.aws (close)</title>
<polygon fill="none" stroke="#000000" points="348,-423 348,-438 392,-438 392,-423 348,-423"/>
<text text-anchor="start" x="350.7969" y="-428.6" font-family="courier new" font-size="8.00" fill="#000000">provider</text>
<polygon fill="none" stroke="#000000" points="348,-408 348,-423 392,-423 392,-408 348,-408"/>
<text text-anchor="start" x="362.7988" y="-413.6" font-family="courier new" font-size="8.00" fill="#000000">aws</text>
</g>
<!-- [root] provider.aws (close)&#45;&gt;[root] module.certificate.aws_acm_certificate_validation.len_1 -->
<g id="edge_32" class="edge">
<title>[root] provider.aws (close)&#45;&gt;[root] module.certificate.aws_acm_certificate_validation.len_1</title>
<path fill="none" stroke="#000000" d="M342.8769,-417.1035C302.5711,-408.2069 224.5692,-390.4736 159,-372.5 158.2547,-372.2957 157.5059,-372.0893 156.7543,-371.881"/>
<polygon fill="#000000" stroke="#000000" points="157.4266,-368.4338 146.8513,-369.0776 155.5199,-375.1691 157.4266,-368.4338"/>
</g>
<!-- [root] provider.aws (close)&#45;&gt;[root] module.certificate.aws_acm_certificate_validation.len_2 -->
<g id="edge_33" class="edge">
<title>[root] provider.aws (close)&#45;&gt;[root] module.certificate.aws_acm_certificate_validation.len_2</title>
<path fill="none" stroke="#000000" d="M342.7553,-406.5888C327.2218,-397.2321 307.3355,-385.2533 289.4116,-374.4566"/>
<polygon fill="#000000" stroke="#000000" points="291.1699,-371.4298 280.7979,-369.268 287.558,-377.426 291.1699,-371.4298"/>
</g>
<!-- [root] provider.aws (close)&#45;&gt;[root] module.certificate.aws_acm_certificate_validation.len_3 -->
<g id="edge_34" class="edge">
<title>[root] provider.aws (close)&#45;&gt;[root] module.certificate.aws_acm_certificate_validation.len_3</title>
<path fill="none" stroke="#000000" d="M379.7164,-404.8706C384.0144,-396.8512 389.1964,-387.1823 394.0956,-378.0412"/>
<polygon fill="#000000" stroke="#000000" points="397.2183,-379.6239 398.8573,-369.1565 391.0485,-376.3172 397.2183,-379.6239"/>
</g>
<!-- [root] provider.aws (close)&#45;&gt;[root] module.certificate.aws_acm_certificate_validation.len_4 -->
<g id="edge_35" class="edge">
<title>[root] provider.aws (close)&#45;&gt;[root] module.certificate.aws_acm_certificate_validation.len_4</title>
<path fill="none" stroke="#000000" d="M397.3363,-408.8458C400.2361,-407.4907 403.162,-406.1827 406,-405 423.5966,-397.6666 462.8352,-384.3144 499.5007,-372.216"/>
<polygon fill="#000000" stroke="#000000" points="500.8461,-375.458 509.2512,-369.0079 498.6582,-368.8087 500.8461,-375.458"/>
</g>
<!-- [root] root -->
<g id="node_19" class="node">
<title>[root] root</title>
<polygon fill="none" stroke="#000000" points="445.3089,-513 376.6911,-513 376.6911,-477 445.3089,-477 445.3089,-513"/>
<text text-anchor="middle" x="411" y="-493.1313" font-family="courier new" font-size="8.00" fill="#000000">[root] root</text>
</g>
<!-- [root] root&#45;&gt;[root] meta.count&#45;boundary (count boundary fixup) -->
<g id="edge_36" class="edge">
<title>[root] root&#45;&gt;[root] meta.count&#45;boundary (count boundary fixup)</title>
<path fill="none" stroke="#000000" d="M421.346,-476.8314C425.9237,-468.7925 431.4052,-459.1666 436.4588,-450.2918"/>
<polygon fill="#000000" stroke="#000000" points="439.6077,-451.8351 441.5147,-441.4133 433.5248,-448.3712 439.6077,-451.8351"/>
</g>
<!-- [root] root&#45;&gt;[root] provider.aws (close) -->
<g id="edge_37" class="edge">
<title>[root] root&#45;&gt;[root] provider.aws (close)</title>
<path fill="none" stroke="#000000" d="M400.654,-476.8314C396.0763,-468.7925 390.5948,-459.1666 385.5412,-450.2918"/>
<polygon fill="#000000" stroke="#000000" points="388.4752,-448.3712 380.4853,-441.4133 382.3923,-451.8351 388.4752,-448.3712"/>
</g>
<!-- [root] module.certificate.output.arn -->
<g id="node_17" class="node">
<title>[root] module.certificate.output.arn</title>
<polygon fill="none" stroke="#000000" points="753,-272.5 753,-287.5 831,-287.5 831,-272.5 753,-272.5"/>
<text text-anchor="start" x="755.9941" y="-278.1" font-family="courier new" font-size="8.00" fill="#000000">(M) certificate</text>
<polygon fill="none" stroke="#000000" points="753,-257.5 753,-272.5 831,-272.5 831,-257.5 753,-257.5"/>
<text text-anchor="start" x="777.5977" y="-263.1" font-family="courier new" font-size="8.00" fill="#000000">output</text>
<polygon fill="none" stroke="#000000" points="753,-242.5 753,-257.5 831,-257.5 831,-242.5 753,-242.5"/>
<text text-anchor="start" x="784.7988" y="-248.1" font-family="courier new" font-size="8.00" fill="#000000">arn</text>
</g>
<!-- [root] output.certificate_arn&#45;&gt;[root] module.certificate.output.arn -->
<g id="edge_31" class="edge">
<title>[root] output.certificate_arn&#45;&gt;[root] module.certificate.output.arn</title>
<path fill="none" stroke="#000000" d="M803.5963,-328.1198C801.9496,-319.228 799.923,-308.284 798.027,-298.046"/>
<polygon fill="#000000" stroke="#000000" points="801.4561,-297.3409 796.1936,-288.1455 794.5731,-298.6156 801.4561,-297.3409"/>
</g>
<!-- [root] module.certificate.aws_acm_certificate.cert -->
<g id="node_1" class="node">
<title>[root] module.certificate.aws_acm_certificate.cert</title>
<polygon fill="none" stroke="#000000" points="528,-191.5 528,-206.5 625,-206.5 625,-191.5 528,-191.5"/>
<text text-anchor="start" x="540.4941" y="-197.1" font-family="courier new" font-size="8.00" fill="#000000">(M) certificate</text>
<polygon fill="none" stroke="#000000" points="528,-176.5 528,-191.5 625,-191.5 625,-176.5 528,-176.5"/>
<text text-anchor="start" x="530.8926" y="-182.1" font-family="courier new" font-size="8.00" fill="#000000">aws_acm_certificate</text>
<polygon fill="none" stroke="#000000" points="528,-161.5 528,-176.5 625,-176.5 625,-161.5 528,-161.5"/>
<text text-anchor="start" x="566.8984" y="-167.1" font-family="courier new" font-size="8.00" fill="#000000">cert</text>
</g>
<!-- [root] module.certificate.aws_acm_certificate.cert&#45;&gt;[root] provider.aws -->
<g id="edge_9" class="edge">
<title>[root] module.certificate.aws_acm_certificate.cert&#45;&gt;[root] provider.aws</title>
<path fill="none" stroke="#000000" d="M564.5983,-161.9746C549.7625,-132.665 523.8558,-81.4835 507.8895,-49.9403"/>
<polygon fill="#000000" stroke="#000000" points="510.9158,-48.1689 503.2768,-40.8274 504.6703,-51.3302 510.9158,-48.1689"/>
</g>
<!-- [root] module.certificate.var.domains -->
<g id="node_14" class="node">
<title>[root] module.certificate.var.domains</title>
<polygon fill="none" stroke="#000000" points="565,-110.5 565,-125.5 643,-125.5 643,-110.5 565,-110.5"/>
<text text-anchor="start" x="567.9941" y="-116.1" font-family="courier new" font-size="8.00" fill="#000000">(M) certificate</text>
<polygon fill="none" stroke="#000000" points="565,-95.5 565,-110.5 643,-110.5 643,-95.5 565,-95.5"/>
<text text-anchor="start" x="596.7988" y="-101.1" font-family="courier new" font-size="8.00" fill="#000000">var</text>
<polygon fill="none" stroke="#000000" points="565,-80.5 565,-95.5 643,-95.5 643,-80.5 565,-80.5"/>
<text text-anchor="start" x="587.1973" y="-86.1" font-family="courier new" font-size="8.00" fill="#000000">domains</text>
</g>
<!-- [root] module.certificate.aws_acm_certificate.cert&#45;&gt;[root] module.certificate.var.domains -->
<g id="edge_7" class="edge">
<title>[root] module.certificate.aws_acm_certificate.cert&#45;&gt;[root] module.certificate.var.domains</title>
<path fill="none" stroke="#000000" d="M583.7996,-161.937C586.5977,-153.8423 589.81,-144.5497 592.8375,-135.7916"/>
<polygon fill="#000000" stroke="#000000" points="596.1859,-136.8177 596.1452,-126.2229 589.5701,-134.5307 596.1859,-136.8177"/>
</g>
<!-- [root] module.certificate.aws_route53_record.validation_0 -->
<g id="node_6" class="node">
<title>[root] module.certificate.aws_route53_record.validation_0</title>
<polygon fill="none" stroke="#000000" points="256,-272.5 256,-287.5 348,-287.5 348,-272.5 256,-272.5"/>
<text text-anchor="start" x="265.9941" y="-278.1" font-family="courier new" font-size="8.00" fill="#000000">(M) certificate</text>
<polygon fill="none" stroke="#000000" points="256,-257.5 256,-272.5 348,-272.5 348,-257.5 256,-257.5"/>
<text text-anchor="start" x="258.793" y="-263.1" font-family="courier new" font-size="8.00" fill="#000000">aws_route53_record</text>
<polygon fill="none" stroke="#000000" points="256,-242.5 256,-257.5 348,-257.5 348,-242.5 256,-242.5"/>
<text text-anchor="start" x="273.1953" y="-248.1" font-family="courier new" font-size="8.00" fill="#000000">validation_0</text>
</g>
<!-- [root] module.certificate.aws_acm_certificate_validation.len_1&#45;&gt;[root] module.certificate.aws_route53_record.validation_0 -->
<g id="edge_10" class="edge">
<title>[root] module.certificate.aws_acm_certificate_validation.len_1&#45;&gt;[root] module.certificate.aws_route53_record.validation_0</title>
<path fill="none" stroke="#000000" d="M138.2322,-323.937C171.9963,-311.889 213.1979,-297.1871 245.8276,-285.5439"/>
<polygon fill="#000000" stroke="#000000" points="247.419,-288.6922 255.6611,-282.035 245.0665,-282.0994 247.419,-288.6922"/>
</g>
<!-- [root] module.certificate.aws_acm_certificate_validation.len_2&#45;&gt;[root] module.certificate.aws_route53_record.validation_0 -->
<g id="edge_11" class="edge">
<title>[root] module.certificate.aws_acm_certificate_validation.len_2&#45;&gt;[root] module.certificate.aws_route53_record.validation_0</title>
<path fill="none" stroke="#000000" d="M259.4348,-323.937C265.6479,-315.4071 272.8299,-305.547 279.5043,-296.3839"/>
<polygon fill="#000000" stroke="#000000" points="282.3901,-298.3667 285.4487,-288.2229 276.732,-294.2453 282.3901,-298.3667"/>
</g>
<!-- [root] module.certificate.aws_route53_record.validation_1 -->
<g id="node_7" class="node">
<title>[root] module.certificate.aws_route53_record.validation_1</title>
<polygon fill="none" stroke="#000000" points="366,-272.5 366,-287.5 458,-287.5 458,-272.5 366,-272.5"/>
<text text-anchor="start" x="375.9941" y="-278.1" font-family="courier new" font-size="8.00" fill="#000000">(M) certificate</text>
<polygon fill="none" stroke="#000000" points="366,-257.5 366,-272.5 458,-272.5 458,-257.5 366,-257.5"/>
<text text-anchor="start" x="368.793" y="-263.1" font-family="courier new" font-size="8.00" fill="#000000">aws_route53_record</text>
<polygon fill="none" stroke="#000000" points="366,-242.5 366,-257.5 458,-257.5 458,-242.5 366,-242.5"/>
<text text-anchor="start" x="383.1953" y="-248.1" font-family="courier new" font-size="8.00" fill="#000000">validation_1</text>
</g>
<!-- [root] module.certificate.aws_acm_certificate_validation.len_2&#45;&gt;[root] module.certificate.aws_route53_record.validation_1 -->
<g id="edge_12" class="edge">
<title>[root] module.certificate.aws_acm_certificate_validation.len_2&#45;&gt;[root] module.certificate.aws_route53_record.validation_1</title>
<path fill="none" stroke="#000000" d="M290.0759,-323.937C310.757,-314.0248 335.1861,-302.3161 356.7257,-291.9924"/>
<polygon fill="#000000" stroke="#000000" points="358.2557,-295.1404 365.7607,-287.6621 355.2302,-288.828 358.2557,-295.1404"/>
</g>
<!-- [root] module.certificate.aws_acm_certificate_validation.len_3&#45;&gt;[root] module.certificate.aws_route53_record.validation_0 -->
<g id="edge_13" class="edge">
<title>[root] module.certificate.aws_acm_certificate_validation.len_3&#45;&gt;[root] module.certificate.aws_route53_record.validation_0</title>
<path fill="none" stroke="#000000" d="M380.6374,-323.937C368.3391,-314.7979 353.9858,-304.1317 340.9329,-294.4318"/>
<polygon fill="#000000" stroke="#000000" points="342.6919,-291.3783 332.5778,-288.2229 338.5166,-296.9968 342.6919,-291.3783"/>
</g>
<!-- [root] module.certificate.aws_acm_certificate_validation.len_3&#45;&gt;[root] module.certificate.aws_route53_record.validation_1 -->
<g id="edge_14" class="edge">
<title>[root] module.certificate.aws_acm_certificate_validation.len_3&#45;&gt;[root] module.certificate.aws_route53_record.validation_1</title>
<path fill="none" stroke="#000000" d="M411.2786,-323.937C411.3763,-316.0164 411.4883,-306.9488 411.5944,-298.3574"/>
<polygon fill="#000000" stroke="#000000" points="415.0957,-298.2654 411.7195,-288.2229 408.0962,-298.1789 415.0957,-298.2654"/>
</g>
<!-- [root] module.certificate.aws_route53_record.validation_2 -->
<g id="node_8" class="node">
<title>[root] module.certificate.aws_route53_record.validation_2</title>
<polygon fill="none" stroke="#000000" points="476,-272.5 476,-287.5 568,-287.5 568,-272.5 476,-272.5"/>
<text text-anchor="start" x="485.9941" y="-278.1" font-family="courier new" font-size="8.00" fill="#000000">(M) certificate</text>
<polygon fill="none" stroke="#000000" points="476,-257.5 476,-272.5 568,-272.5 568,-257.5 476,-257.5"/>
<text text-anchor="start" x="478.793" y="-263.1" font-family="courier new" font-size="8.00" fill="#000000">aws_route53_record</text>
<polygon fill="none" stroke="#000000" points="476,-242.5 476,-257.5 568,-257.5 568,-242.5 476,-242.5"/>
<text text-anchor="start" x="493.1953" y="-248.1" font-family="courier new" font-size="8.00" fill="#000000">validation_2</text>
</g>
<!-- [root] module.certificate.aws_acm_certificate_validation.len_3&#45;&gt;[root] module.certificate.aws_route53_record.validation_2 -->
<g id="edge_15" class="edge">
<title>[root] module.certificate.aws_acm_certificate_validation.len_3&#45;&gt;[root] module.certificate.aws_route53_record.validation_2</title>
<path fill="none" stroke="#000000" d="M441.9197,-323.937C454.5629,-314.7108 469.3389,-303.9283 482.7321,-294.1549"/>
<polygon fill="#000000" stroke="#000000" points="484.8464,-296.945 490.8611,-288.2229 480.7201,-291.2904 484.8464,-296.945"/>
</g>
<!-- [root] module.certificate.aws_acm_certificate_validation.len_4&#45;&gt;[root] module.certificate.aws_route53_record.validation_0 -->
<g id="edge_16" class="edge">
<title>[root] module.certificate.aws_acm_certificate_validation.len_4&#45;&gt;[root] module.certificate.aws_route53_record.validation_0</title>
<path fill="none" stroke="#000000" d="M507.1534,-323.9051C503.0497,-322.7258 498.9771,-321.5824 495,-320.5 437.1691,-304.7603 418.7941,-306.9395 357.7661,-288.0243"/>
<polygon fill="#000000" stroke="#000000" points="358.6093,-284.6201 348.0192,-284.9393 356.4969,-291.2938 358.6093,-284.6201"/>
</g>
<!-- [root] module.certificate.aws_acm_certificate_validation.len_4&#45;&gt;[root] module.certificate.aws_route53_record.validation_1 -->
<g id="edge_17" class="edge">
<title>[root] module.certificate.aws_acm_certificate_validation.len_4&#45;&gt;[root] module.certificate.aws_route53_record.validation_1</title>
<path fill="none" stroke="#000000" d="M532.4812,-323.937C512.3042,-314.1506 488.517,-302.6131 467.432,-292.3862"/>
<polygon fill="#000000" stroke="#000000" points="468.7943,-289.157 458.2693,-287.942 465.7394,-295.4553 468.7943,-289.157"/>
</g>
<!-- [root] module.certificate.aws_acm_certificate_validation.len_4&#45;&gt;[root] module.certificate.aws_route53_record.validation_2 -->
<g id="edge_18" class="edge">
<title>[root] module.certificate.aws_acm_certificate_validation.len_4&#45;&gt;[root] module.certificate.aws_route53_record.validation_2</title>
<path fill="none" stroke="#000000" d="M563.1223,-323.937C557.1811,-315.4942 550.3227,-305.7481 543.9307,-296.6646"/>
<polygon fill="#000000" stroke="#000000" points="546.6075,-294.3868 537.9902,-288.2229 540.8829,-298.4153 546.6075,-294.3868"/>
</g>
<!-- [root] module.certificate.aws_route53_record.validation_3 -->
<g id="node_9" class="node">
<title>[root] module.certificate.aws_route53_record.validation_3</title>
<polygon fill="none" stroke="#000000" points="586,-272.5 586,-287.5 678,-287.5 678,-272.5 586,-272.5"/>
<text text-anchor="start" x="595.9941" y="-278.1" font-family="courier new" font-size="8.00" fill="#000000">(M) certificate</text>
<polygon fill="none" stroke="#000000" points="586,-257.5 586,-272.5 678,-272.5 678,-257.5 586,-257.5"/>
<text text-anchor="start" x="588.793" y="-263.1" font-family="courier new" font-size="8.00" fill="#000000">aws_route53_record</text>
<polygon fill="none" stroke="#000000" points="586,-242.5 586,-257.5 678,-257.5 678,-242.5 586,-242.5"/>
<text text-anchor="start" x="603.1953" y="-248.1" font-family="courier new" font-size="8.00" fill="#000000">validation_3</text>
</g>
<!-- [root] module.certificate.aws_acm_certificate_validation.len_4&#45;&gt;[root] module.certificate.aws_route53_record.validation_3 -->
<g id="edge_19" class="edge">
<title>[root] module.certificate.aws_acm_certificate_validation.len_4&#45;&gt;[root] module.certificate.aws_route53_record.validation_3</title>
<path fill="none" stroke="#000000" d="M593.7635,-323.937C599.2878,-315.4942 605.6648,-305.7481 611.6083,-296.6646"/>
<polygon fill="#000000" stroke="#000000" points="614.5853,-298.5072 617.1319,-288.2229 608.7278,-294.6745 614.5853,-298.5072"/>
</g>
<!-- [root] module.certificate.aws_route53_record.validation_0&#45;&gt;[root] module.certificate.aws_acm_certificate.cert -->
<g id="edge_20" class="edge">
<title>[root] module.certificate.aws_route53_record.validation_0&#45;&gt;[root] module.certificate.aws_acm_certificate.cert</title>
<path fill="none" stroke="#000000" d="M348.0098,-246.031C351.0331,-244.9525 354.0483,-243.9309 357,-243 426.1006,-221.2083 446.585,-227.7685 516,-207 516.5829,-206.8256 517.1682,-206.6484 517.7557,-206.4686"/>
<polygon fill="#000000" stroke="#000000" points="518.9556,-209.7592 527.3981,-203.358 516.8065,-203.0972 518.9556,-209.7592"/>
</g>
<!-- [root] module.certificate.var.hosted_zone_id -->
<g id="node_16" class="node">
<title>[root] module.certificate.var.hosted_zone_id</title>
<polygon fill="none" stroke="#000000" points="429,-191.5 429,-206.5 507,-206.5 507,-191.5 429,-191.5"/>
<text text-anchor="start" x="431.9941" y="-197.1" font-family="courier new" font-size="8.00" fill="#000000">(M) certificate</text>
<polygon fill="none" stroke="#000000" points="429,-176.5 429,-191.5 507,-191.5 507,-176.5 429,-176.5"/>
<text text-anchor="start" x="460.7988" y="-182.1" font-family="courier new" font-size="8.00" fill="#000000">var</text>
<polygon fill="none" stroke="#000000" points="429,-161.5 429,-176.5 507,-176.5 507,-161.5 429,-161.5"/>
<text text-anchor="start" x="434.3945" y="-167.1" font-family="courier new" font-size="8.00" fill="#000000">hosted_zone_id</text>
</g>
<!-- [root] module.certificate.aws_route53_record.validation_0&#45;&gt;[root] module.certificate.var.hosted_zone_id -->
<g id="edge_21" class="edge">
<title>[root] module.certificate.aws_route53_record.validation_0&#45;&gt;[root] module.certificate.var.hosted_zone_id</title>
<path fill="none" stroke="#000000" d="M348.2403,-242.937C370.4999,-232.0754 397.18,-219.0568 419.7023,-208.0669"/>
<polygon fill="#000000" stroke="#000000" points="421.3,-211.1818 428.7523,-203.651 418.2303,-204.8908 421.3,-211.1818"/>
</g>
<!-- [root] module.certificate.aws_route53_record.validation_1&#45;&gt;[root] module.certificate.aws_acm_certificate.cert -->
<g id="edge_22" class="edge">
<title>[root] module.certificate.aws_route53_record.validation_1&#45;&gt;[root] module.certificate.aws_acm_certificate.cert</title>
<path fill="none" stroke="#000000" d="M457.6831,-242.937C477.4151,-233.1913 500.6629,-221.7092 521.3048,-211.5141"/>
<polygon fill="#000000" stroke="#000000" points="522.8616,-214.6489 530.2777,-207.0824 519.7617,-208.3726 522.8616,-214.6489"/>
</g>
<!-- [root] module.certificate.aws_route53_record.validation_1&#45;&gt;[root] module.certificate.var.hosted_zone_id -->
<g id="edge_23" class="edge">
<title>[root] module.certificate.aws_route53_record.validation_1&#45;&gt;[root] module.certificate.var.hosted_zone_id</title>
<path fill="none" stroke="#000000" d="M427.5991,-242.937C433.4361,-234.4942 440.1741,-224.7481 446.4541,-215.6646"/>
<polygon fill="#000000" stroke="#000000" points="449.4824,-217.4389 452.2903,-207.2229 443.7245,-213.4581 449.4824,-217.4389"/>
</g>
<!-- [root] module.certificate.aws_route53_record.validation_2&#45;&gt;[root] module.certificate.aws_acm_certificate.cert -->
<g id="edge_24" class="edge">
<title>[root] module.certificate.aws_route53_record.validation_2&#45;&gt;[root] module.certificate.aws_acm_certificate.cert</title>
<path fill="none" stroke="#000000" d="M537.042,-242.937C542.6705,-234.4942 549.1679,-224.7481 555.2236,-215.6646"/>
<polygon fill="#000000" stroke="#000000" points="558.2165,-217.4849 560.8514,-207.2229 552.3921,-213.602 558.2165,-217.4849"/>
</g>
<!-- [root] module.certificate.aws_route53_record.validation_2&#45;&gt;[root] module.certificate.var.hosted_zone_id -->
<g id="edge_25" class="edge">
<title>[root] module.certificate.aws_route53_record.validation_2&#45;&gt;[root] module.certificate.var.hosted_zone_id</title>
<path fill="none" stroke="#000000" d="M506.958,-242.937C501.3295,-234.4942 494.8321,-224.7481 488.7764,-215.6646"/>
<polygon fill="#000000" stroke="#000000" points="491.6079,-213.602 483.1486,-207.2229 485.7835,-217.4849 491.6079,-213.602"/>
</g>
<!-- [root] module.certificate.aws_route53_record.validation_3&#45;&gt;[root] module.certificate.aws_acm_certificate.cert -->
<g id="edge_26" class="edge">
<title>[root] module.certificate.aws_route53_record.validation_3&#45;&gt;[root] module.certificate.aws_acm_certificate.cert</title>
<path fill="none" stroke="#000000" d="M616.4009,-242.937C610.5639,-234.4942 603.8259,-224.7481 597.5459,-215.6646"/>
<polygon fill="#000000" stroke="#000000" points="600.2755,-213.4581 591.7097,-207.2229 594.5176,-217.4389 600.2755,-213.4581"/>
</g>
<!-- [root] module.certificate.aws_route53_record.validation_3&#45;&gt;[root] module.certificate.var.hosted_zone_id -->
<g id="edge_27" class="edge">
<title>[root] module.certificate.aws_route53_record.validation_3&#45;&gt;[root] module.certificate.var.hosted_zone_id</title>
<path fill="none" stroke="#000000" d="M586.3169,-242.937C564.5061,-232.1646 538.3996,-219.2705 516.265,-208.3382"/>
<polygon fill="#000000" stroke="#000000" points="517.5621,-205.0752 507.0461,-203.785 514.4622,-211.3515 517.5621,-205.0752"/>
</g>
<!-- [root] module.certificate.output.id&#45;&gt;[root] module.certificate.aws_acm_certificate.cert -->
<g id="edge_29" class="edge">
<title>[root] module.certificate.output.id&#45;&gt;[root] module.certificate.aws_acm_certificate.cert</title>
<path fill="none" stroke="#000000" d="M711.0086,-323.6122C709.8902,-300.9591 705.0203,-266.3725 687,-243 673.5083,-225.5011 653.2813,-212.685 633.7746,-203.588"/>
<polygon fill="#000000" stroke="#000000" points="635.153,-200.3707 624.5906,-199.5419 632.3308,-206.7766 635.153,-200.3707"/>
</g>
<!-- [root] module.certificate.var.tags -->
<g id="node_15" class="node">
<title>[root] module.certificate.var.tags</title>
<polygon fill="none" stroke="#000000" points="565,-29.5 565,-44.5 643,-44.5 643,-29.5 565,-29.5"/>
<text text-anchor="start" x="567.9941" y="-35.1" font-family="courier new" font-size="8.00" fill="#000000">(M) certificate</text>
<polygon fill="none" stroke="#000000" points="565,-14.5 565,-29.5 643,-29.5 643,-14.5 565,-14.5"/>
<text text-anchor="start" x="596.7988" y="-20.1" font-family="courier new" font-size="8.00" fill="#000000">var</text>
<polygon fill="none" stroke="#000000" points="565,.5 565,-14.5 643,-14.5 643,.5 565,.5"/>
<text text-anchor="start" x="594.3984" y="-5.1" font-family="courier new" font-size="8.00" fill="#000000">tags</text>
</g>
<!-- [root] module.certificate.var.domains&#45;&gt;[root] module.certificate.var.tags -->
<g id="edge_38" class="edge">
<title>[root] module.certificate.var.domains&#45;&gt;[root] module.certificate.var.tags</title>
<path fill="none" stroke="#000000" stroke-dasharray="5,2" d="M604,-80.937C604,-69.796 604,-56.3856 604,-45.2229"/>
</g>
<!-- [root] module.certificate.var.hosted_zone_id&#45;&gt;[root] data.aws_route53_zone.cq -->
<g id="edge_30" class="edge">
<title>[root] module.certificate.var.hosted_zone_id&#45;&gt;[root] data.aws_route53_zone.cq</title>
<path fill="none" stroke="#000000" d="M468,-161.937C468,-152.5865 468,-141.6374 468,-131.7603"/>
<polygon fill="#000000" stroke="#000000" points="471.5001,-131.5897 468,-121.5898 464.5001,-131.5898 471.5001,-131.5897"/>
</g>
<!-- [root] module.certificate.output.arn&#45;&gt;[root] module.certificate.aws_acm_certificate.cert -->
<g id="edge_28" class="edge">
<title>[root] module.certificate.output.arn&#45;&gt;[root] module.certificate.aws_acm_certificate.cert</title>
<path fill="none" stroke="#000000" d="M752.884,-250.8315C719.8504,-238.4439 672.0605,-220.5227 634.4804,-206.4302"/>
<polygon fill="#000000" stroke="#000000" points="635.2604,-202.9847 624.6681,-202.7506 632.8025,-209.539 635.2604,-202.9847"/>
</g>
</g>
</svg>

