<?xml version="1.0" encoding="UTF-8" standalone="no"?>
<!DOCTYPE svg PUBLIC "-//W3C//DTD SVG 1.1//EN"
 "http://www.w3.org/Graphics/SVG/1.1/DTD/svg11.dtd">
<!-- Generated by graphviz version 2.40.1 (20161225.0304)
 -->
<!-- Title: %3 Pages: 1 -->
<svg width="394pt" height="521pt"
 viewBox="0.00 0.00 394.00 521.00" xmlns="http://www.w3.org/2000/svg" xmlns:xlink="http://www.w3.org/1999/xlink">
<g id="graph0" class="graph" transform="scale(1 1) rotate(0) translate(4 517)">
<title>%3</title>
<polygon fill="#ffffff" stroke="transparent" points="-4,4 -4,-517 390,-517 390,4 -4,4"/>
<g id="clust4" class="cluster">
<title>cluster[root] meta.count&#45;boundary (count boundary fixup)_output_[root] module.certificate.output.arn</title>
</g>
<!-- [root] provider.aws -->
<g id="node_4" class="node">
<title>[root] provider.aws</title>
<polygon fill="none" stroke="#000000" points="143,-103.5 143,-118.5 187,-118.5 187,-103.5 143,-103.5"/>
<text text-anchor="start" x="145.7969" y="-109.1" font-family="courier new" font-size="8.00" fill="#000000">provider</text>
<polygon fill="none" stroke="#000000" points="143,-88.5 143,-103.5 187,-103.5 187,-88.5 143,-88.5"/>
<text text-anchor="start" x="157.7988" y="-94.1" font-family="courier new" font-size="8.00" fill="#000000">aws</text>
</g>
<!-- [root] meta.count&#45;boundary (count boundary fixup) -->
<g id="node_5" class="node">
<title>[root] meta.count&#45;boundary (count boundary fixup)</title>
<polygon fill="none" stroke="#000000" points="202,-423 202,-438 275,-438 275,-423 202,-423"/>
<text text-anchor="start" x="228.8984" y="-428.6" font-family="courier new" font-size="8.00" fill="#000000">meta</text>
<polygon fill="none" stroke="#000000" points="202,-408 202,-423 275,-423 275,-408 202,-408"/>
<text text-anchor="start" x="204.8945" y="-413.6" font-family="courier new" font-size="8.00" fill="#000000">count&#45;boundary</text>
</g>
<!-- [root] output.certificate_arn -->
<g id="node_7" class="node">
<title>[root] output.certificate_arn</title>
<polygon fill="none" stroke="#000000" points="212,-346.5 212,-361.5 290,-361.5 290,-346.5 212,-346.5"/>
<text text-anchor="start" x="236.5977" y="-352.1" font-family="courier new" font-size="8.00" fill="#000000">output</text>
<polygon fill="none" stroke="#000000" points="212,-331.5 212,-346.5 290,-346.5 290,-331.5 212,-331.5"/>
<text text-anchor="start" x="214.9941" y="-337.1" font-family="courier new" font-size="8.00" fill="#000000">certificate_arn</text>
</g>
<!-- [root] meta.count&#45;boundary (count boundary fixup)&#45;&gt;[root] output.certificate_arn -->
<g id="edge_2" class="edge">
<title>[root] meta.count&#45;boundary (count boundary fixup)&#45;&gt;[root] output.certificate_arn</title>
<path fill="none" stroke="#000000" d="M241.0808,-404.8706C242.6077,-395.8854 244.4865,-384.8294 246.1968,-374.7651"/>
<polygon fill="#000000" stroke="#000000" points="249.6714,-375.2095 247.8962,-364.7644 242.7703,-374.0367 249.6714,-375.2095"/>
</g>
<!-- [root] module.certificate.aws_acm_certificate_validation.len_2 -->
<g id="node_1" class="node">
<title>[root] module.certificate.aws_acm_certificate_validation.len_2</title>
<polygon fill="none" stroke="#000000" points="44,-353.5 44,-368.5 194,-368.5 194,-353.5 44,-353.5"/>
<text text-anchor="start" x="82.9941" y="-359.1" font-family="courier new" font-size="8.00" fill="#000000">(M) certificate</text>
<polygon fill="none" stroke="#000000" points="44,-338.5 44,-353.5 194,-353.5 194,-338.5 44,-338.5"/>
<text text-anchor="start" x="46.9883" y="-344.1" font-family="courier new" font-size="8.00" fill="#000000">aws_acm_certificate_validation</text>
<polygon fill="none" stroke="#000000" points="44,-323.5 44,-338.5 194,-338.5 194,-323.5 44,-323.5"/>
<text text-anchor="start" x="106.998" y="-329.1" font-family="courier new" font-size="8.00" fill="#000000">len_2</text>
</g>
<!-- [root] meta.count&#45;boundary (count boundary fixup)&#45;&gt;[root] module.certificate.aws_acm_certificate_validation.len_2 -->
<g id="edge_0" class="edge">
<title>[root] meta.count&#45;boundary (count boundary fixup)&#45;&gt;[root] module.certificate.aws_acm_certificate_validation.len_2</title>
<path fill="none" stroke="#000000" d="M209.7987,-404.8706C195.7648,-395.8488 178.4834,-384.7393 162.7768,-374.6422"/>
<polygon fill="#000000" stroke="#000000" points="164.548,-371.62 154.2435,-369.1565 160.7627,-377.5083 164.548,-371.62"/>
</g>
<!-- [root] module.certificate.output.id -->
<g id="node_6" class="node">
<title>[root] module.certificate.output.id</title>
<polygon fill="none" stroke="#000000" points="308,-353.5 308,-368.5 386,-368.5 386,-353.5 308,-353.5"/>
<text text-anchor="start" x="310.9941" y="-359.1" font-family="courier new" font-size="8.00" fill="#000000">(M) certificate</text>
<polygon fill="none" stroke="#000000" points="308,-338.5 308,-353.5 386,-353.5 386,-338.5 308,-338.5"/>
<text text-anchor="start" x="332.5977" y="-344.1" font-family="courier new" font-size="8.00" fill="#000000">output</text>
<polygon fill="none" stroke="#000000" points="308,-323.5 308,-338.5 386,-338.5 386,-323.5 308,-323.5"/>
<text text-anchor="start" x="342.1992" y="-329.1" font-family="courier new" font-size="8.00" fill="#000000">id</text>
</g>
<!-- [root] meta.count&#45;boundary (count boundary fixup)&#45;&gt;[root] module.certificate.output.id -->
<g id="edge_1" class="edge">
<title>[root] meta.count&#45;boundary (count boundary fixup)&#45;&gt;[root] module.certificate.output.id</title>
<path fill="none" stroke="#000000" d="M263.8315,-404.8706C276.567,-395.9323 292.2223,-384.9449 306.5019,-374.923"/>
<polygon fill="#000000" stroke="#000000" points="308.5435,-377.7661 314.7181,-369.1565 304.5222,-372.0364 308.5435,-377.7661"/>
</g>
<!-- [root] provider.aws (close) -->
<g id="node_12" class="node">
<title>[root] provider.aws (close)</title>
<polygon fill="none" stroke="#000000" points="122,-423 122,-438 166,-438 166,-423 122,-423"/>
<text text-anchor="start" x="124.7969" y="-428.6" font-family="courier new" font-size="8.00" fill="#000000">provider</text>
<polygon fill="none" stroke="#000000" points="122,-408 122,-423 166,-423 166,-408 122,-408"/>
<text text-anchor="start" x="136.7988" y="-413.6" font-family="courier new" font-size="8.00" fill="#000000">aws</text>
</g>
<!-- [root] provider.aws (close)&#45;&gt;[root] module.certificate.aws_acm_certificate_validation.len_2 -->
<g id="edge_15" class="edge">
<title>[root] provider.aws (close)&#45;&gt;[root] module.certificate.aws_acm_certificate_validation.len_2</title>
<path fill="none" stroke="#000000" d="M138.0753,-404.8706C135.5365,-397.1018 132.4918,-387.785 129.5881,-378.8996"/>
<polygon fill="#000000" stroke="#000000" points="132.8373,-377.5746 126.4041,-369.1565 126.1836,-379.7491 132.8373,-377.5746"/>
</g>
<!-- [root] root -->
<g id="node_13" class="node">
<title>[root] root</title>
<polygon fill="none" stroke="#000000" points="219.3089,-513 150.6911,-513 150.6911,-477 219.3089,-477 219.3089,-513"/>
<text text-anchor="middle" x="185" y="-493.1313" font-family="courier new" font-size="8.00" fill="#000000">[root] root</text>
</g>
<!-- [root] root&#45;&gt;[root] meta.count&#45;boundary (count boundary fixup) -->
<g id="edge_16" class="edge">
<title>[root] root&#45;&gt;[root] meta.count&#45;boundary (count boundary fixup)</title>
<path fill="none" stroke="#000000" d="M198.3741,-476.8314C204.4162,-468.6232 211.6763,-458.7606 218.3221,-449.7323"/>
<polygon fill="#000000" stroke="#000000" points="221.3363,-451.5415 224.4458,-441.4133 215.6989,-447.3918 221.3363,-451.5415"/>
</g>
<!-- [root] root&#45;&gt;[root] provider.aws (close) -->
<g id="edge_17" class="edge">
<title>[root] root&#45;&gt;[root] provider.aws (close)</title>
<path fill="none" stroke="#000000" d="M174.654,-476.8314C170.0763,-468.7925 164.5948,-459.1666 159.5412,-450.2918"/>
<polygon fill="#000000" stroke="#000000" points="162.4752,-448.3712 154.4853,-441.4133 156.3923,-451.8351 162.4752,-448.3712"/>
</g>
<!-- [root] module.certificate.output.arn -->
<g id="node_11" class="node">
<title>[root] module.certificate.output.arn</title>
<polygon fill="none" stroke="#000000" points="220,-272.5 220,-287.5 298,-287.5 298,-272.5 220,-272.5"/>
<text text-anchor="start" x="222.9941" y="-278.1" font-family="courier new" font-size="8.00" fill="#000000">(M) certificate</text>
<polygon fill="none" stroke="#000000" points="220,-257.5 220,-272.5 298,-272.5 298,-257.5 220,-257.5"/>
<text text-anchor="start" x="244.5977" y="-263.1" font-family="courier new" font-size="8.00" fill="#000000">output</text>
<polygon fill="none" stroke="#000000" points="220,-242.5 220,-257.5 298,-257.5 298,-242.5 220,-242.5"/>
<text text-anchor="start" x="251.7988" y="-248.1" font-family="courier new" font-size="8.00" fill="#000000">arn</text>
</g>
<!-- [root] output.certificate_arn&#45;&gt;[root] module.certificate.output.arn -->
<g id="edge_14" class="edge">
<title>[root] output.certificate_arn&#45;&gt;[root] module.certificate.output.arn</title>
<path fill="none" stroke="#000000" d="M252.8153,-328.1198C253.6844,-319.3206 254.7519,-308.5118 255.754,-298.3662"/>
<polygon fill="#000000" stroke="#000000" points="259.2635,-298.4411 256.7634,-288.1455 252.2974,-297.753 259.2635,-298.4411"/>
</g>
<!-- [root] module.certificate.aws_acm_certificate.cert -->
<g id="node_0" class="node">
<title>[root] module.certificate.aws_acm_certificate.cert</title>
<polygon fill="none" stroke="#000000" points="159,-191.5 159,-206.5 256,-206.5 256,-191.5 159,-191.5"/>
<text text-anchor="start" x="171.4941" y="-197.1" font-family="courier new" font-size="8.00" fill="#000000">(M) certificate</text>
<polygon fill="none" stroke="#000000" points="159,-176.5 159,-191.5 256,-191.5 256,-176.5 159,-176.5"/>
<text text-anchor="start" x="161.8926" y="-182.1" font-family="courier new" font-size="8.00" fill="#000000">aws_acm_certificate</text>
<polygon fill="none" stroke="#000000" points="159,-161.5 159,-176.5 256,-176.5 256,-161.5 159,-161.5"/>
<text text-anchor="start" x="197.8984" y="-167.1" font-family="courier new" font-size="8.00" fill="#000000">cert</text>
</g>
<!-- [root] module.certificate.aws_acm_certificate.cert&#45;&gt;[root] provider.aws -->
<g id="edge_5" class="edge">
<title>[root] module.certificate.aws_acm_certificate.cert&#45;&gt;[root] provider.aws</title>
<path fill="none" stroke="#000000" d="M195.3007,-161.937C190.2459,-152.1886 184.2903,-140.7027 179.0028,-130.5055"/>
<polygon fill="#000000" stroke="#000000" points="182.0902,-128.8562 174.3799,-121.5898 175.876,-132.0784 182.0902,-128.8562"/>
</g>
<!-- [root] module.certificate.var.domains -->
<g id="node_8" class="node">
<title>[root] module.certificate.var.domains</title>
<polygon fill="none" stroke="#000000" points="210,-110.5 210,-125.5 288,-125.5 288,-110.5 210,-110.5"/>
<text text-anchor="start" x="212.9941" y="-116.1" font-family="courier new" font-size="8.00" fill="#000000">(M) certificate</text>
<polygon fill="none" stroke="#000000" points="210,-95.5 210,-110.5 288,-110.5 288,-95.5 210,-95.5"/>
<text text-anchor="start" x="241.7988" y="-101.1" font-family="courier new" font-size="8.00" fill="#000000">var</text>
<polygon fill="none" stroke="#000000" points="210,-80.5 210,-95.5 288,-95.5 288,-80.5 210,-80.5"/>
<text text-anchor="start" x="232.1973" y="-86.1" font-family="courier new" font-size="8.00" fill="#000000">domains</text>
</g>
<!-- [root] module.certificate.aws_acm_certificate.cert&#45;&gt;[root] module.certificate.var.domains -->
<g id="edge_3" class="edge">
<title>[root] module.certificate.aws_acm_certificate.cert&#45;&gt;[root] module.certificate.var.domains</title>
<path fill="none" stroke="#000000" d="M218.6993,-161.937C222.9868,-153.6683 227.9225,-144.1495 232.5488,-135.2273"/>
<polygon fill="#000000" stroke="#000000" points="235.7217,-136.7116 237.2177,-126.2229 229.5074,-133.4894 235.7217,-136.7116"/>
</g>
<!-- [root] module.certificate.aws_route53_record.validation_0 -->
<g id="node_2" class="node">
<title>[root] module.certificate.aws_route53_record.validation_0</title>
<polygon fill="none" stroke="#000000" points="0,-272.5 0,-287.5 92,-287.5 92,-272.5 0,-272.5"/>
<text text-anchor="start" x="9.9941" y="-278.1" font-family="courier new" font-size="8.00" fill="#000000">(M) certificate</text>
<polygon fill="none" stroke="#000000" points="0,-257.5 0,-272.5 92,-272.5 92,-257.5 0,-257.5"/>
<text text-anchor="start" x="2.793" y="-263.1" font-family="courier new" font-size="8.00" fill="#000000">aws_route53_record</text>
<polygon fill="none" stroke="#000000" points="0,-242.5 0,-257.5 92,-257.5 92,-242.5 0,-242.5"/>
<text text-anchor="start" x="17.1953" y="-248.1" font-family="courier new" font-size="8.00" fill="#000000">validation_0</text>
</g>
<!-- [root] module.certificate.aws_acm_certificate_validation.len_2&#45;&gt;[root] module.certificate.aws_route53_record.validation_0 -->
<g id="edge_6" class="edge">
<title>[root] module.certificate.aws_acm_certificate_validation.len_2&#45;&gt;[root] module.certificate.aws_route53_record.validation_0</title>
<path fill="none" stroke="#000000" d="M98.6654,-323.937C90.8212,-315.2331 81.7286,-305.144 73.3289,-295.8238"/>
<polygon fill="#000000" stroke="#000000" points="75.7734,-293.3082 66.4787,-288.2229 70.5735,-297.9945 75.7734,-293.3082"/>
</g>
<!-- [root] module.certificate.aws_route53_record.validation_1 -->
<g id="node_3" class="node">
<title>[root] module.certificate.aws_route53_record.validation_1</title>
<polygon fill="none" stroke="#000000" points="110,-272.5 110,-287.5 202,-287.5 202,-272.5 110,-272.5"/>
<text text-anchor="start" x="119.9941" y="-278.1" font-family="courier new" font-size="8.00" fill="#000000">(M) certificate</text>
<polygon fill="none" stroke="#000000" points="110,-257.5 110,-272.5 202,-272.5 202,-257.5 110,-257.5"/>
<text text-anchor="start" x="112.793" y="-263.1" font-family="courier new" font-size="8.00" fill="#000000">aws_route53_record</text>
<polygon fill="none" stroke="#000000" points="110,-242.5 110,-257.5 202,-257.5 202,-242.5 110,-242.5"/>
<text text-anchor="start" x="127.1953" y="-248.1" font-family="courier new" font-size="8.00" fill="#000000">validation_1</text>
</g>
<!-- [root] module.certificate.aws_acm_certificate_validation.len_2&#45;&gt;[root] module.certificate.aws_route53_record.validation_1 -->
<g id="edge_7" class="edge">
<title>[root] module.certificate.aws_acm_certificate_validation.len_2&#45;&gt;[root] module.certificate.aws_route53_record.validation_1</title>
<path fill="none" stroke="#000000" d="M129.3066,-323.937C133.0439,-315.7553 137.3403,-306.3497 141.3785,-297.5093"/>
<polygon fill="#000000" stroke="#000000" points="144.649,-298.7732 145.6204,-288.2229 138.2818,-295.8647 144.649,-298.7732"/>
</g>
<!-- [root] module.certificate.aws_route53_record.validation_0&#45;&gt;[root] module.certificate.aws_acm_certificate.cert -->
<g id="edge_8" class="edge">
<title>[root] module.certificate.aws_route53_record.validation_0&#45;&gt;[root] module.certificate.aws_acm_certificate.cert</title>
<path fill="none" stroke="#000000" d="M90.8475,-242.937C110.1316,-233.235 132.8364,-221.8121 153.0326,-211.6513"/>
<polygon fill="#000000" stroke="#000000" points="154.7539,-214.7033 162.1141,-207.0824 151.6079,-208.4501 154.7539,-214.7033"/>
</g>
<!-- [root] module.certificate.var.hosted_zone_id -->
<g id="node_10" class="node">
<title>[root] module.certificate.var.hosted_zone_id</title>
<polygon fill="none" stroke="#000000" points="60,-191.5 60,-206.5 138,-206.5 138,-191.5 60,-191.5"/>
<text text-anchor="start" x="62.9941" y="-197.1" font-family="courier new" font-size="8.00" fill="#000000">(M) certificate</text>
<polygon fill="none" stroke="#000000" points="60,-176.5 60,-191.5 138,-191.5 138,-176.5 60,-176.5"/>
<text text-anchor="start" x="91.7988" y="-182.1" font-family="courier new" font-size="8.00" fill="#000000">var</text>
<polygon fill="none" stroke="#000000" points="60,-161.5 60,-176.5 138,-176.5 138,-161.5 60,-161.5"/>
<text text-anchor="start" x="65.3945" y="-167.1" font-family="courier new" font-size="8.00" fill="#000000">hosted_zone_id</text>
</g>
<!-- [root] module.certificate.aws_route53_record.validation_0&#45;&gt;[root] module.certificate.var.hosted_zone_id -->
<g id="edge_9" class="edge">
<title>[root] module.certificate.aws_route53_record.validation_0&#45;&gt;[root] module.certificate.var.hosted_zone_id</title>
<path fill="none" stroke="#000000" d="M60.7635,-242.937C66.2878,-234.4942 72.6648,-224.7481 78.6083,-215.6646"/>
<polygon fill="#000000" stroke="#000000" points="81.5853,-217.5072 84.1319,-207.2229 75.7278,-213.6745 81.5853,-217.5072"/>
</g>
<!-- [root] module.certificate.aws_route53_record.validation_1&#45;&gt;[root] module.certificate.aws_acm_certificate.cert -->
<g id="edge_10" class="edge">
<title>[root] module.certificate.aws_route53_record.validation_1&#45;&gt;[root] module.certificate.aws_acm_certificate.cert</title>
<path fill="none" stroke="#000000" d="M170.2063,-242.937C175.4674,-234.5812 181.5322,-224.9489 187.2008,-215.9458"/>
<polygon fill="#000000" stroke="#000000" points="190.3266,-217.5502 192.693,-207.2229 184.403,-213.8204 190.3266,-217.5502"/>
</g>
<!-- [root] module.certificate.aws_route53_record.validation_1&#45;&gt;[root] module.certificate.var.hosted_zone_id -->
<g id="edge_11" class="edge">
<title>[root] module.certificate.aws_route53_record.validation_1&#45;&gt;[root] module.certificate.var.hosted_zone_id</title>
<path fill="none" stroke="#000000" d="M140.1223,-242.937C134.1811,-234.4942 127.3227,-224.7481 120.9307,-215.6646"/>
<polygon fill="#000000" stroke="#000000" points="123.6075,-213.3868 114.9902,-207.2229 117.8829,-217.4153 123.6075,-213.3868"/>
</g>
<!-- [root] module.certificate.output.id&#45;&gt;[root] module.certificate.aws_acm_certificate.cert -->
<g id="edge_13" class="edge">
<title>[root] module.certificate.output.id&#45;&gt;[root] module.certificate.aws_acm_certificate.cert</title>
<path fill="none" stroke="#000000" d="M342.7716,-323.6542C337.6078,-301.0337 326.9771,-266.472 307,-243 295.4485,-229.4277 279.9131,-218.2423 264.5355,-209.4175"/>
<polygon fill="#000000" stroke="#000000" points="265.9842,-206.2206 255.531,-204.4942 262.6261,-212.3625 265.9842,-206.2206"/>
</g>
<!-- [root] module.certificate.var.tags -->
<g id="node_9" class="node">
<title>[root] module.certificate.var.tags</title>
<polygon fill="none" stroke="#000000" points="210,-29.5 210,-44.5 288,-44.5 288,-29.5 210,-29.5"/>
<text text-anchor="start" x="212.9941" y="-35.1" font-family="courier new" font-size="8.00" fill="#000000">(M) certificate</text>
<polygon fill="none" stroke="#000000" points="210,-14.5 210,-29.5 288,-29.5 288,-14.5 210,-14.5"/>
<text text-anchor="start" x="241.7988" y="-20.1" font-family="courier new" font-size="8.00" fill="#000000">var</text>
<polygon fill="none" stroke="#000000" points="210,.5 210,-14.5 288,-14.5 288,.5 210,.5"/>
<text text-anchor="start" x="239.3984" y="-5.1" font-family="courier new" font-size="8.00" fill="#000000">tags</text>
</g>
<!-- [root] module.certificate.var.domains&#45;&gt;[root] module.certificate.var.tags -->
<g id="edge_18" class="edge">
<title>[root] module.certificate.var.domains&#45;&gt;[root] module.certificate.var.tags</title>
<path fill="none" stroke="#000000" stroke-dasharray="5,2" d="M249,-80.937C249,-69.796 249,-56.3856 249,-45.2229"/>
</g>
<!-- [root] module.certificate.output.arn&#45;&gt;[root] module.certificate.aws_acm_certificate.cert -->
<g id="edge_12" class="edge">
<title>[root] module.certificate.output.arn&#45;&gt;[root] module.certificate.aws_acm_certificate.cert</title>
<path fill="none" stroke="#000000" d="M244.5151,-242.937C239.095,-234.4942 232.8383,-224.7481 227.0069,-215.6646"/>
<polygon fill="#000000" stroke="#000000" points="229.9353,-213.7473 221.5876,-207.2229 224.0446,-217.5289 229.9353,-213.7473"/>
</g>
</g>
</svg>

