<?xml version="1.0" encoding="UTF-8" standalone="no"?>
<!DOCTYPE svg PUBLIC "-//W3C//DTD SVG 1.1//EN"
 "http://www.w3.org/Graphics/SVG/1.1/DTD/svg11.dtd">
<!-- Generated by graphviz version 2.40.1 (20161225.0304)
 -->
<!-- Title: %3 Pages: 1 -->
<svg width="3118pt" height="548pt"
 viewBox="0.00 0.00 3117.95 548.00" xmlns="http://www.w3.org/2000/svg" xmlns:xlink="http://www.w3.org/1999/xlink">
<g id="graph0" class="graph" transform="scale(1 1) rotate(0) translate(4 544)">
<title>%3</title>
<polygon fill="#ffffff" stroke="transparent" points="-4,4 -4,-544 3113.9473,-544 3113.9473,4 -4,4"/>
<!-- [root] module.meta.aws_dynamodb_table.meta_lock -->
<g id="node1" class="node">
<title>[root] module.meta.aws_dynamodb_table.meta_lock</title>
<polygon fill="none" stroke="#000000" points="1753.6021,-252 1477.4146,-252 1477.4146,-216 1753.6021,-216 1753.6021,-252"/>
<text text-anchor="middle" x="1615.5084" y="-229.8" font-family="Times,serif" font-size="14.00" fill="#000000">module.meta.aws_dynamodb_table.meta_lock</text>
</g>
<!-- [root] provider.aws -->
<g id="node13" class="node">
<title>[root] provider.aws</title>
<polygon fill="none" stroke="#000000" points="1472.5084,-180 1393.9,-162 1472.5084,-144 1551.1167,-162 1472.5084,-180"/>
<text text-anchor="middle" x="1472.5084" y="-157.8" font-family="Times,serif" font-size="14.00" fill="#000000">provider.aws</text>
</g>
<!-- [root] module.meta.aws_dynamodb_table.meta_lock&#45;&gt;[root] provider.aws -->
<g id="edge12" class="edge">
<title>[root] module.meta.aws_dynamodb_table.meta_lock&#45;&gt;[root] provider.aws</title>
<path fill="none" stroke="#000000" d="M1579.4234,-215.8314C1556.9804,-204.5314 1528.3092,-190.0955 1506.3082,-179.0181"/>
<polygon fill="#000000" stroke="#000000" points="1507.8309,-175.8662 1497.3252,-174.4952 1504.6829,-182.1185 1507.8309,-175.8662"/>
</g>
<!-- [root] module.meta.local.name_prefix -->
<g id="node23" class="node">
<title>[root] module.meta.local.name_prefix</title>
<ellipse fill="none" stroke="#000000" cx="920.5084" cy="-162" rx="144.3765" ry="18"/>
<text text-anchor="middle" x="920.5084" y="-157.8" font-family="Times,serif" font-size="14.00" fill="#000000">[root] module.meta.local.name_prefix</text>
</g>
<!-- [root] module.meta.aws_dynamodb_table.meta_lock&#45;&gt;[root] module.meta.local.name_prefix -->
<g id="edge10" class="edge">
<title>[root] module.meta.aws_dynamodb_table.meta_lock&#45;&gt;[root] module.meta.local.name_prefix</title>
<path fill="none" stroke="#000000" d="M1477.4141,-216.9942C1474.4188,-216.6565 1471.4473,-216.3247 1468.5084,-216 1324.1864,-200.0555 1158.2201,-184.0226 1047.0936,-173.6187"/>
<polygon fill="#000000" stroke="#000000" points="1047.131,-170.107 1036.8486,-172.661 1046.4794,-177.0766 1047.131,-170.107"/>
</g>
<!-- [root] module.meta.local.tags -->
<g id="node24" class="node">
<title>[root] module.meta.local.tags</title>
<ellipse fill="none" stroke="#000000" cx="1239.5084" cy="-162" rx="114.4587" ry="18"/>
<text text-anchor="middle" x="1239.5084" y="-157.8" font-family="Times,serif" font-size="14.00" fill="#000000">[root] module.meta.local.tags</text>
</g>
<!-- [root] module.meta.aws_dynamodb_table.meta_lock&#45;&gt;[root] module.meta.local.tags -->
<g id="edge11" class="edge">
<title>[root] module.meta.aws_dynamodb_table.meta_lock&#45;&gt;[root] module.meta.local.tags</title>
<path fill="none" stroke="#000000" d="M1521.113,-215.9243C1459.9352,-204.2094 1381.0027,-189.0947 1322.2778,-177.8495"/>
<polygon fill="#000000" stroke="#000000" points="1322.7759,-174.3813 1312.2961,-175.9381 1321.4594,-181.2564 1322.7759,-174.3813"/>
</g>
<!-- [root] module.meta.aws_dynamodb_table.state_lock -->
<g id="node2" class="node">
<title>[root] module.meta.aws_dynamodb_table.state_lock</title>
<polygon fill="none" stroke="#000000" points="919.5507,-252 645.466,-252 645.466,-216 919.5507,-216 919.5507,-252"/>
<text text-anchor="middle" x="782.5084" y="-229.8" font-family="Times,serif" font-size="14.00" fill="#000000">module.meta.aws_dynamodb_table.state_lock</text>
</g>
<!-- [root] module.meta.aws_dynamodb_table.state_lock&#45;&gt;[root] provider.aws -->
<g id="edge15" class="edge">
<title>[root] module.meta.aws_dynamodb_table.state_lock&#45;&gt;[root] provider.aws</title>
<path fill="none" stroke="#000000" d="M919.6561,-216.9298C922.6332,-216.6116 925.5868,-216.3011 928.5084,-216 1121.0396,-196.1545 1170.407,-203.6468 1362.5084,-180 1380.8113,-177.747 1400.7306,-174.6771 1418.5265,-171.7106"/>
<polygon fill="#000000" stroke="#000000" points="1419.4555,-175.1032 1428.7309,-169.9829 1418.2869,-168.2014 1419.4555,-175.1032"/>
</g>
<!-- [root] module.meta.aws_dynamodb_table.state_lock&#45;&gt;[root] module.meta.local.name_prefix -->
<g id="edge13" class="edge">
<title>[root] module.meta.aws_dynamodb_table.state_lock&#45;&gt;[root] module.meta.local.name_prefix</title>
<path fill="none" stroke="#000000" d="M817.3316,-215.8314C835.6669,-206.2651 858.3098,-194.4514 877.7081,-184.3306"/>
<polygon fill="#000000" stroke="#000000" points="879.4035,-187.3938 886.6504,-179.665 876.1655,-181.1877 879.4035,-187.3938"/>
</g>
<!-- [root] module.meta.aws_dynamodb_table.state_lock&#45;&gt;[root] module.meta.local.tags -->
<g id="edge14" class="edge">
<title>[root] module.meta.aws_dynamodb_table.state_lock&#45;&gt;[root] module.meta.local.tags</title>
<path fill="none" stroke="#000000" d="M896.9443,-215.9707C974.7176,-203.7176 1076.2021,-187.7288 1148.4791,-176.3416"/>
<polygon fill="#000000" stroke="#000000" points="1149.1449,-179.7799 1158.4784,-174.7662 1148.0555,-172.8652 1149.1449,-179.7799"/>
</g>
<!-- [root] module.meta.aws_iam_access_key.ci -->
<g id="node3" class="node">
<title>[root] module.meta.aws_iam_access_key.ci</title>
<polygon fill="none" stroke="#000000" points="864.6346,-324 640.3821,-324 640.3821,-288 864.6346,-288 864.6346,-324"/>
<text text-anchor="middle" x="752.5084" y="-301.8" font-family="Times,serif" font-size="14.00" fill="#000000">module.meta.aws_iam_access_key.ci</text>
</g>
<!-- [root] module.meta.aws_iam_user.ci -->
<g id="node4" class="node">
<title>[root] module.meta.aws_iam_user.ci</title>
<polygon fill="none" stroke="#000000" points="627.1363,-252 441.8804,-252 441.8804,-216 627.1363,-216 627.1363,-252"/>
<text text-anchor="middle" x="534.5084" y="-229.8" font-family="Times,serif" font-size="14.00" fill="#000000">module.meta.aws_iam_user.ci</text>
</g>
<!-- [root] module.meta.aws_iam_access_key.ci&#45;&gt;[root] module.meta.aws_iam_user.ci -->
<g id="edge16" class="edge">
<title>[root] module.meta.aws_iam_access_key.ci&#45;&gt;[root] module.meta.aws_iam_user.ci</title>
<path fill="none" stroke="#000000" d="M697.7791,-287.9243C667.7181,-277.9959 630.2633,-265.6255 598.813,-255.2382"/>
<polygon fill="#000000" stroke="#000000" points="599.8533,-251.8959 589.2601,-252.0831 597.6579,-258.5428 599.8533,-251.8959"/>
</g>
<!-- [root] module.meta.aws_iam_user.ci&#45;&gt;[root] provider.aws -->
<g id="edge19" class="edge">
<title>[root] module.meta.aws_iam_user.ci&#45;&gt;[root] provider.aws</title>
<path fill="none" stroke="#000000" d="M627.2756,-217.1218C630.3865,-216.7179 633.4706,-216.342 636.5084,-216 957.5434,-179.8575 1041.2542,-214.1396 1362.5084,-180 1381.1743,-178.0164 1401.488,-174.9516 1419.5208,-171.9099"/>
<polygon fill="#000000" stroke="#000000" points="1420.3007,-175.3272 1429.5611,-170.1799 1419.112,-168.4288 1420.3007,-175.3272"/>
</g>
<!-- [root] module.meta.aws_iam_user.ci&#45;&gt;[root] module.meta.local.name_prefix -->
<g id="edge17" class="edge">
<title>[root] module.meta.aws_iam_user.ci&#45;&gt;[root] module.meta.local.name_prefix</title>
<path fill="none" stroke="#000000" d="M627.4562,-216.6626C688.9492,-205.1924 769.1724,-190.2285 830.1333,-178.8575"/>
<polygon fill="#000000" stroke="#000000" points="830.9401,-182.2675 840.1287,-176.9931 829.6565,-175.3862 830.9401,-182.2675"/>
</g>
<!-- [root] module.meta.aws_iam_user.ci&#45;&gt;[root] module.meta.local.tags -->
<g id="edge18" class="edge">
<title>[root] module.meta.aws_iam_user.ci&#45;&gt;[root] module.meta.local.tags</title>
<path fill="none" stroke="#000000" d="M627.2913,-217.2514C630.3977,-216.8104 633.4766,-216.3915 636.5084,-216 829.7834,-191.0397 879.5089,-198.5058 1073.5084,-180 1093.8438,-178.0602 1115.5621,-175.8244 1136.3611,-173.6026"/>
<polygon fill="#000000" stroke="#000000" points="1136.9188,-177.0629 1146.4876,-172.5143 1136.1708,-170.103 1136.9188,-177.0629"/>
</g>
<!-- [root] module.meta.aws_iam_user_policy.ci -->
<g id="node5" class="node">
<title>[root] module.meta.aws_iam_user_policy.ci</title>
<polygon fill="none" stroke="#000000" points="1253.9859,-396 1027.0308,-396 1027.0308,-360 1253.9859,-360 1253.9859,-396"/>
<text text-anchor="middle" x="1140.5084" y="-373.8" font-family="Times,serif" font-size="14.00" fill="#000000">module.meta.aws_iam_user_policy.ci</text>
</g>
<!-- [root] module.meta.data.aws_iam_policy_document.ci -->
<g id="node8" class="node">
<title>[root] module.meta.data.aws_iam_policy_document.ci</title>
<polygon fill="none" stroke="#000000" points="1519.5956,-324 1233.4211,-324 1233.4211,-288 1519.5956,-288 1519.5956,-324"/>
<text text-anchor="middle" x="1376.5084" y="-301.8" font-family="Times,serif" font-size="14.00" fill="#000000">module.meta.data.aws_iam_policy_document.ci</text>
</g>
<!-- [root] module.meta.aws_iam_user_policy.ci&#45;&gt;[root] module.meta.data.aws_iam_policy_document.ci -->
<g id="edge20" class="edge">
<title>[root] module.meta.aws_iam_user_policy.ci&#45;&gt;[root] module.meta.data.aws_iam_policy_document.ci</title>
<path fill="none" stroke="#000000" d="M1199.7565,-359.9243C1232.4399,-349.9531 1273.1967,-337.5188 1307.3341,-327.104"/>
<polygon fill="#000000" stroke="#000000" points="1308.6924,-330.3489 1317.2358,-324.0831 1306.6497,-323.6536 1308.6924,-330.3489"/>
</g>
<!-- [root] module.meta.aws_s3_bucket.state -->
<g id="node6" class="node">
<title>[root] module.meta.aws_s3_bucket.state</title>
<polygon fill="none" stroke="#000000" points="1459.9019,-252 1253.1148,-252 1253.1148,-216 1459.9019,-216 1459.9019,-252"/>
<text text-anchor="middle" x="1356.5084" y="-229.8" font-family="Times,serif" font-size="14.00" fill="#000000">module.meta.aws_s3_bucket.state</text>
</g>
<!-- [root] module.meta.aws_s3_bucket.state&#45;&gt;[root] provider.aws -->
<g id="edge23" class="edge">
<title>[root] module.meta.aws_s3_bucket.state&#45;&gt;[root] provider.aws</title>
<path fill="none" stroke="#000000" d="M1385.7801,-215.8314C1403.155,-205.0469 1425.1317,-191.4062 1442.6149,-180.5546"/>
<polygon fill="#000000" stroke="#000000" points="1444.649,-183.4114 1451.2997,-175.164 1440.9574,-177.464 1444.649,-183.4114"/>
</g>
<!-- [root] module.meta.aws_s3_bucket.state&#45;&gt;[root] module.meta.local.name_prefix -->
<g id="edge21" class="edge">
<title>[root] module.meta.aws_s3_bucket.state&#45;&gt;[root] module.meta.local.name_prefix</title>
<path fill="none" stroke="#000000" d="M1252.9061,-216.8914C1181.6137,-205.1183 1087.5459,-189.5842 1017.6801,-178.0467"/>
<polygon fill="#000000" stroke="#000000" points="1017.9899,-174.5505 1007.5532,-176.3744 1016.8493,-181.457 1017.9899,-174.5505"/>
</g>
<!-- [root] module.meta.aws_s3_bucket.state&#45;&gt;[root] module.meta.local.tags -->
<g id="edge22" class="edge">
<title>[root] module.meta.aws_s3_bucket.state&#45;&gt;[root] module.meta.local.tags</title>
<path fill="none" stroke="#000000" d="M1326.9843,-215.8314C1311.7908,-206.4815 1293.1087,-194.9848 1276.9159,-185.02"/>
<polygon fill="#000000" stroke="#000000" points="1278.565,-181.9252 1268.214,-179.665 1274.8963,-187.8869 1278.565,-181.9252"/>
</g>
<!-- [root] module.meta.data.aws_caller_identity.current -->
<g id="node7" class="node">
<title>[root] module.meta.data.aws_caller_identity.current</title>
<polygon fill="none" stroke="#000000" points="3109.8863,-252 2839.1304,-252 2839.1304,-216 3109.8863,-216 3109.8863,-252"/>
<text text-anchor="middle" x="2974.5084" y="-229.8" font-family="Times,serif" font-size="14.00" fill="#000000">module.meta.data.aws_caller_identity.current</text>
</g>
<!-- [root] module.meta.data.aws_caller_identity.current&#45;&gt;[root] provider.aws -->
<g id="edge24" class="edge">
<title>[root] module.meta.data.aws_caller_identity.current&#45;&gt;[root] provider.aws</title>
<path fill="none" stroke="#000000" d="M2839.0893,-216.8264C2835.866,-216.5348 2832.6687,-216.2586 2829.5084,-216 2350.0471,-176.7699 1772.8614,-165.7712 1558.2877,-162.9225"/>
<polygon fill="#000000" stroke="#000000" points="1558.084,-159.4196 1548.0392,-162.789 1557.9927,-166.419 1558.084,-159.4196"/>
</g>
<!-- [root] module.meta.data.aws_iam_policy_document.ci&#45;&gt;[root] module.meta.aws_dynamodb_table.meta_lock -->
<g id="edge25" class="edge">
<title>[root] module.meta.data.aws_iam_policy_document.ci&#45;&gt;[root] module.meta.aws_dynamodb_table.meta_lock</title>
<path fill="none" stroke="#000000" d="M1436.5097,-287.9243C1469.7506,-277.9103 1511.2379,-265.412 1545.8995,-254.97"/>
<polygon fill="#000000" stroke="#000000" points="1546.917,-258.3189 1555.4824,-252.0831 1544.8978,-251.6165 1546.917,-258.3189"/>
</g>
<!-- [root] module.meta.data.aws_iam_policy_document.ci&#45;&gt;[root] module.meta.aws_iam_user.ci -->
<g id="edge26" class="edge">
<title>[root] module.meta.data.aws_iam_policy_document.ci&#45;&gt;[root] module.meta.aws_iam_user.ci</title>
<path fill="none" stroke="#000000" d="M1233.1854,-299.8727C1086.1358,-292.5888 850.6107,-278.16 637.4212,-252.0384"/>
<polygon fill="#000000" stroke="#000000" points="637.6405,-248.539 627.2866,-250.7857 636.7817,-255.4861 637.6405,-248.539"/>
</g>
<!-- [root] module.meta.data.aws_iam_policy_document.ci&#45;&gt;[root] module.meta.aws_s3_bucket.state -->
<g id="edge27" class="edge">
<title>[root] module.meta.data.aws_iam_policy_document.ci&#45;&gt;[root] module.meta.aws_s3_bucket.state</title>
<path fill="none" stroke="#000000" d="M1371.4615,-287.8314C1369.299,-280.0463 1366.7231,-270.7729 1364.3236,-262.1347"/>
<polygon fill="#000000" stroke="#000000" points="1367.672,-261.1117 1361.6232,-252.4133 1360.9274,-262.9852 1367.672,-261.1117"/>
</g>
<!-- [root] module.meta.var.meta_state_key -->
<g id="node25" class="node">
<title>[root] module.meta.var.meta_state_key</title>
<ellipse fill="none" stroke="#000000" cx="1086.5084" cy="-234" rx="148.7198" ry="18"/>
<text text-anchor="middle" x="1086.5084" y="-229.8" font-family="Times,serif" font-size="14.00" fill="#000000">[root] module.meta.var.meta_state_key</text>
</g>
<!-- [root] module.meta.data.aws_iam_policy_document.ci&#45;&gt;[root] module.meta.var.meta_state_key -->
<g id="edge28" class="edge">
<title>[root] module.meta.data.aws_iam_policy_document.ci&#45;&gt;[root] module.meta.var.meta_state_key</title>
<path fill="none" stroke="#000000" d="M1303.7034,-287.9243C1260.3401,-277.1582 1205.4112,-263.5207 1161.6428,-252.6541"/>
<polygon fill="#000000" stroke="#000000" points="1162.4622,-249.2513 1151.9134,-250.2385 1160.7754,-256.0451 1162.4622,-249.2513"/>
</g>
<!-- [root] module.meta.data.aws_region.current -->
<g id="node9" class="node">
<title>[root] module.meta.data.aws_region.current</title>
<polygon fill="none" stroke="#000000" points="2820.7058,-252 2594.3109,-252 2594.3109,-216 2820.7058,-216 2820.7058,-252"/>
<text text-anchor="middle" x="2707.5084" y="-229.8" font-family="Times,serif" font-size="14.00" fill="#000000">module.meta.data.aws_region.current</text>
</g>
<!-- [root] module.meta.data.aws_region.current&#45;&gt;[root] provider.aws -->
<g id="edge29" class="edge">
<title>[root] module.meta.data.aws_region.current&#45;&gt;[root] provider.aws</title>
<path fill="none" stroke="#000000" d="M2594.2923,-217.011C2590.9972,-216.6516 2587.7304,-216.3133 2584.5084,-216 2201.9391,-178.8062 1742.7112,-166.8119 1556.7841,-163.3108"/>
<polygon fill="#000000" stroke="#000000" points="1556.5975,-159.8068 1546.5344,-163.1212 1556.468,-166.8056 1556.5975,-159.8068"/>
</g>
<!-- [root] module.meta.data.template_file.backend_config -->
<g id="node10" class="node">
<title>[root] module.meta.data.template_file.backend_config</title>
<polygon fill="none" stroke="#000000" points="2276.7575,-324 1992.2592,-324 1992.2592,-288 2276.7575,-288 2276.7575,-324"/>
<text text-anchor="middle" x="2134.5084" y="-301.8" font-family="Times,serif" font-size="14.00" fill="#000000">module.meta.data.template_file.backend_config</text>
</g>
<!-- [root] module.meta.data.template_file.backend_config&#45;&gt;[root] module.meta.aws_dynamodb_table.meta_lock -->
<g id="edge30" class="edge">
<title>[root] module.meta.data.template_file.backend_config&#45;&gt;[root] module.meta.aws_dynamodb_table.meta_lock</title>
<path fill="none" stroke="#000000" d="M2004.5472,-287.9707C1928.8293,-277.4665 1833.3217,-264.2169 1755.887,-253.4745"/>
<polygon fill="#000000" stroke="#000000" points="1755.9559,-249.9506 1745.5698,-252.0432 1754.9939,-256.8842 1755.9559,-249.9506"/>
</g>
<!-- [root] module.meta.data.template_file.backend_config&#45;&gt;[root] module.meta.aws_s3_bucket.state -->
<g id="edge31" class="edge">
<title>[root] module.meta.data.template_file.backend_config&#45;&gt;[root] module.meta.aws_s3_bucket.state</title>
<path fill="none" stroke="#000000" d="M1992.1385,-292.2166C1976.0759,-290.7494 1959.9425,-289.3146 1944.5084,-288 1736.4171,-270.2757 1680.9303,-276.6461 1470.3458,-252.1677"/>
<polygon fill="#000000" stroke="#000000" points="1470.539,-248.6664 1460.1995,-250.9785 1469.7241,-255.6188 1470.539,-248.6664"/>
</g>
<!-- [root] module.meta.data.template_file.backend_config&#45;&gt;[root] module.meta.data.aws_region.current -->
<g id="edge32" class="edge">
<title>[root] module.meta.data.template_file.backend_config&#45;&gt;[root] module.meta.data.aws_region.current</title>
<path fill="none" stroke="#000000" d="M2276.7503,-289.8848C2362.6667,-279.9216 2474.6334,-266.5346 2584.0211,-252.046"/>
<polygon fill="#000000" stroke="#000000" points="2584.8056,-255.4726 2594.2574,-250.6859 2583.8835,-248.5336 2584.8056,-255.4726"/>
</g>
<!-- [root] provider.template -->
<g id="node14" class="node">
<title>[root] provider.template</title>
<polygon fill="none" stroke="#000000" points="2473.5084,-252 2371.1827,-234 2473.5084,-216 2575.834,-234 2473.5084,-252"/>
<text text-anchor="middle" x="2473.5084" y="-229.8" font-family="Times,serif" font-size="14.00" fill="#000000">provider.template</text>
</g>
<!-- [root] module.meta.data.template_file.backend_config&#45;&gt;[root] provider.template -->
<g id="edge35" class="edge">
<title>[root] module.meta.data.template_file.backend_config&#45;&gt;[root] provider.template</title>
<path fill="none" stroke="#000000" d="M2219.6148,-287.9243C2281.3401,-274.8145 2363.112,-257.447 2416.9641,-246.0094"/>
<polygon fill="#000000" stroke="#000000" points="2417.9609,-249.3759 2427.0155,-243.8746 2416.5065,-242.5286 2417.9609,-249.3759"/>
</g>
<!-- [root] module.meta.var.account_role_arn -->
<g id="node26" class="node">
<title>[root] module.meta.var.account_role_arn</title>
<ellipse fill="none" stroke="#000000" cx="2198.5084" cy="-234" rx="154.9753" ry="18"/>
<text text-anchor="middle" x="2198.5084" y="-229.8" font-family="Times,serif" font-size="14.00" fill="#000000">[root] module.meta.var.account_role_arn</text>
</g>
<!-- [root] module.meta.data.template_file.backend_config&#45;&gt;[root] module.meta.var.account_role_arn -->
<g id="edge33" class="edge">
<title>[root] module.meta.data.template_file.backend_config&#45;&gt;[root] module.meta.var.account_role_arn</title>
<path fill="none" stroke="#000000" d="M2150.6583,-287.8314C2158.2957,-279.2392 2167.5448,-268.834 2175.8677,-259.4708"/>
<polygon fill="#000000" stroke="#000000" points="2178.5576,-261.7128 2182.5853,-251.9134 2173.3257,-257.0622 2178.5576,-261.7128"/>
</g>
<!-- [root] module.meta.var.state_key -->
<g id="node27" class="node">
<title>[root] module.meta.var.state_key</title>
<ellipse fill="none" stroke="#000000" cx="1898.5084" cy="-234" rx="127.0041" ry="18"/>
<text text-anchor="middle" x="1898.5084" y="-229.8" font-family="Times,serif" font-size="14.00" fill="#000000">[root] module.meta.var.state_key</text>
</g>
<!-- [root] module.meta.data.template_file.backend_config&#45;&gt;[root] module.meta.var.state_key -->
<g id="edge34" class="edge">
<title>[root] module.meta.data.template_file.backend_config&#45;&gt;[root] module.meta.var.state_key</title>
<path fill="none" stroke="#000000" d="M2075.2602,-287.9243C2040.6893,-277.3772 1997.0855,-264.0744 1961.8371,-253.3206"/>
<polygon fill="#000000" stroke="#000000" points="1962.7174,-249.93 1952.1313,-250.3595 1960.6747,-256.6254 1962.7174,-249.93"/>
</g>
<!-- [root] module.meta.data.template_file.meta_backend_config -->
<g id="node11" class="node">
<title>[root] module.meta.data.template_file.meta_backend_config</title>
<polygon fill="none" stroke="#000000" points="1935.9647,-324 1617.052,-324 1617.052,-288 1935.9647,-288 1935.9647,-324"/>
<text text-anchor="middle" x="1776.5084" y="-301.8" font-family="Times,serif" font-size="14.00" fill="#000000">module.meta.data.template_file.meta_backend_config</text>
</g>
<!-- [root] module.meta.data.template_file.meta_backend_config&#45;&gt;[root] module.meta.aws_dynamodb_table.meta_lock -->
<g id="edge36" class="edge">
<title>[root] module.meta.data.template_file.meta_backend_config&#45;&gt;[root] module.meta.aws_dynamodb_table.meta_lock</title>
<path fill="none" stroke="#000000" d="M1735.8813,-287.8314C1714.3485,-278.2018 1687.7235,-266.295 1664.9932,-256.1299"/>
<polygon fill="#000000" stroke="#000000" points="1666.4009,-252.9254 1655.8433,-252.038 1663.5432,-259.3155 1666.4009,-252.9254"/>
</g>
<!-- [root] module.meta.data.template_file.meta_backend_config&#45;&gt;[root] module.meta.aws_s3_bucket.state -->
<g id="edge37" class="edge">
<title>[root] module.meta.data.template_file.meta_backend_config&#45;&gt;[root] module.meta.aws_s3_bucket.state</title>
<path fill="none" stroke="#000000" d="M1671.3375,-287.9707C1609.9864,-277.4534 1532.5807,-264.1838 1469.8752,-253.4343"/>
<polygon fill="#000000" stroke="#000000" points="1470.39,-249.9716 1459.9423,-251.7315 1469.2072,-256.8709 1470.39,-249.9716"/>
</g>
<!-- [root] module.meta.data.template_file.meta_backend_config&#45;&gt;[root] module.meta.data.aws_region.current -->
<g id="edge38" class="edge">
<title>[root] module.meta.data.template_file.meta_backend_config&#45;&gt;[root] module.meta.data.aws_region.current</title>
<path fill="none" stroke="#000000" d="M1935.8216,-291.7116C1951.9254,-290.3977 1968.0386,-289.1357 1983.5084,-288 2247.1223,-268.6468 2316.6364,-279.1346 2584.2737,-251.9652"/>
<polygon fill="#000000" stroke="#000000" points="2584.6957,-255.4404 2594.2875,-250.9406 2583.9831,-248.4768 2584.6957,-255.4404"/>
</g>
<!-- [root] module.meta.data.template_file.meta_backend_config&#45;&gt;[root] provider.template -->
<g id="edge41" class="edge">
<title>[root] module.meta.data.template_file.meta_backend_config&#45;&gt;[root] provider.template</title>
<path fill="none" stroke="#000000" d="M1935.9757,-291.875C2094.9296,-277.7033 2321.207,-257.2454 2362.5084,-252 2378.7872,-249.9325 2396.3426,-247.2822 2412.5813,-244.6547"/>
<polygon fill="#000000" stroke="#000000" points="2413.1978,-248.1004 2422.4989,-243.027 2412.064,-241.1928 2413.1978,-248.1004"/>
</g>
<!-- [root] module.meta.data.template_file.meta_backend_config&#45;&gt;[root] module.meta.var.meta_state_key -->
<g id="edge40" class="edge">
<title>[root] module.meta.data.template_file.meta_backend_config&#45;&gt;[root] module.meta.var.meta_state_key</title>
<path fill="none" stroke="#000000" d="M1616.9919,-290.3244C1511.2916,-279.8102 1369.5773,-265.4712 1244.5084,-252 1231.6029,-250.61 1218.1086,-249.1234 1204.677,-247.6226"/>
<polygon fill="#000000" stroke="#000000" points="1204.7565,-244.1096 1194.4287,-246.4735 1203.9764,-251.0661 1204.7565,-244.1096"/>
</g>
<!-- [root] module.meta.data.template_file.meta_backend_config&#45;&gt;[root] module.meta.var.account_role_arn -->
<g id="edge39" class="edge">
<title>[root] module.meta.data.template_file.meta_backend_config&#45;&gt;[root] module.meta.var.account_role_arn</title>
<path fill="none" stroke="#000000" d="M1882.18,-287.9707C1949.4072,-276.5007 2035.8204,-261.7572 2101.3368,-250.579"/>
<polygon fill="#000000" stroke="#000000" points="2101.9871,-254.0188 2111.2559,-248.8867 2100.8097,-247.1185 2101.9871,-254.0188"/>
</g>
<!-- [root] module.meta.data.template_file.provider_aws_config -->
<g id="node12" class="node">
<title>[root] module.meta.data.template_file.provider_aws_config</title>
<polygon fill="none" stroke="#000000" points="2630.316,-324 2316.7007,-324 2316.7007,-288 2630.316,-288 2630.316,-324"/>
<text text-anchor="middle" x="2473.5084" y="-301.8" font-family="Times,serif" font-size="14.00" fill="#000000">module.meta.data.template_file.provider_aws_config</text>
</g>
<!-- [root] module.meta.data.template_file.provider_aws_config&#45;&gt;[root] module.meta.data.aws_caller_identity.current -->
<g id="edge42" class="edge">
<title>[root] module.meta.data.template_file.provider_aws_config&#45;&gt;[root] module.meta.data.aws_caller_identity.current</title>
<path fill="none" stroke="#000000" d="M2598.9622,-287.9707C2672.0541,-277.4665 2764.2493,-264.2169 2838.9983,-253.4745"/>
<polygon fill="#000000" stroke="#000000" points="2839.5573,-256.9302 2848.9577,-252.0432 2838.5615,-250.0014 2839.5573,-256.9302"/>
</g>
<!-- [root] module.meta.data.template_file.provider_aws_config&#45;&gt;[root] module.meta.data.aws_region.current -->
<g id="edge43" class="edge">
<title>[root] module.meta.data.template_file.provider_aws_config&#45;&gt;[root] module.meta.data.aws_region.current</title>
<path fill="none" stroke="#000000" d="M2532.2544,-287.9243C2564.6608,-277.9531 2605.0722,-265.5188 2638.9203,-255.104"/>
<polygon fill="#000000" stroke="#000000" points="2640.2097,-258.3693 2648.7381,-252.0831 2638.151,-251.6788 2640.2097,-258.3693"/>
</g>
<!-- [root] module.meta.data.template_file.provider_aws_config&#45;&gt;[root] provider.template -->
<g id="edge45" class="edge">
<title>[root] module.meta.data.template_file.provider_aws_config&#45;&gt;[root] provider.template</title>
<path fill="none" stroke="#000000" d="M2473.5084,-287.8314C2473.5084,-280.131 2473.5084,-270.9743 2473.5084,-262.4166"/>
<polygon fill="#000000" stroke="#000000" points="2477.0085,-262.4132 2473.5084,-252.4133 2470.0085,-262.4133 2477.0085,-262.4132"/>
</g>
<!-- [root] module.meta.data.template_file.provider_aws_config&#45;&gt;[root] module.meta.var.account_role_arn -->
<g id="edge44" class="edge">
<title>[root] module.meta.data.template_file.provider_aws_config&#45;&gt;[root] module.meta.var.account_role_arn</title>
<path fill="none" stroke="#000000" d="M2404.4692,-287.9243C2363.8161,-277.2806 2312.4437,-263.8303 2271.1758,-253.0256"/>
<polygon fill="#000000" stroke="#000000" points="2272.0166,-249.6279 2261.4561,-250.4809 2270.2435,-256.3996 2272.0166,-249.6279"/>
</g>
<!-- [root] meta.count&#45;boundary (count boundary fixup) -->
<g id="node15" class="node">
<title>[root] meta.count&#45;boundary (count boundary fixup)</title>
<ellipse fill="none" stroke="#000000" cx="1051.5084" cy="-450" rx="191.6931" ry="18"/>
<text text-anchor="middle" x="1051.5084" y="-445.8" font-family="Times,serif" font-size="14.00" fill="#000000">[root] meta.count&#45;boundary (count boundary fixup)</text>
</g>
<!-- [root] meta.count&#45;boundary (count boundary fixup)&#45;&gt;[root] module.meta.aws_dynamodb_table.state_lock -->
<g id="edge1" class="edge">
<title>[root] meta.count&#45;boundary (count boundary fixup)&#45;&gt;[root] module.meta.aws_dynamodb_table.state_lock</title>
<path fill="none" stroke="#000000" d="M1033.8704,-431.6714C1003.0542,-400.1887 936.6599,-334.7219 873.5084,-288 858.5704,-276.9483 841.2305,-266.1998 825.7187,-257.2403"/>
<polygon fill="#000000" stroke="#000000" points="827.2514,-254.0855 816.8288,-252.1829 823.7901,-260.1699 827.2514,-254.0855"/>
</g>
<!-- [root] meta.count&#45;boundary (count boundary fixup)&#45;&gt;[root] module.meta.aws_iam_user_policy.ci -->
<g id="edge2" class="edge">
<title>[root] meta.count&#45;boundary (count boundary fixup)&#45;&gt;[root] module.meta.aws_iam_user_policy.ci</title>
<path fill="none" stroke="#000000" d="M1073.9668,-431.8314C1084.9288,-422.9632 1098.2782,-412.1637 1110.1348,-402.5718"/>
<polygon fill="#000000" stroke="#000000" points="1112.4839,-405.1734 1118.0571,-396.1628 1108.0813,-399.7313 1112.4839,-405.1734"/>
</g>
<!-- [root] module.meta.output.backend_config -->
<g id="node16" class="node">
<title>[root] module.meta.output.backend_config</title>
<ellipse fill="none" stroke="#000000" cx="1816.5084" cy="-378" rx="161.2829" ry="18"/>
<text text-anchor="middle" x="1816.5084" y="-373.8" font-family="Times,serif" font-size="14.00" fill="#000000">[root] module.meta.output.backend_config</text>
</g>
<!-- [root] meta.count&#45;boundary (count boundary fixup)&#45;&gt;[root] module.meta.output.backend_config -->
<g id="edge3" class="edge">
<title>[root] meta.count&#45;boundary (count boundary fixup)&#45;&gt;[root] module.meta.output.backend_config</title>
<path fill="none" stroke="#000000" d="M1192.5211,-437.8013C1313.1174,-427.2254 1491.283,-411.2608 1646.5084,-396 1660.6674,-394.608 1675.4847,-393.1061 1690.2173,-391.5844"/>
<polygon fill="#000000" stroke="#000000" points="1690.8086,-395.0419 1700.3941,-390.5288 1690.0864,-388.0792 1690.8086,-395.0419"/>
</g>
<!-- [root] module.meta.output.ci_access_key_id -->
<g id="node17" class="node">
<title>[root] module.meta.output.ci_access_key_id</title>
<ellipse fill="none" stroke="#000000" cx="386.5084" cy="-378" rx="167.0543" ry="18"/>
<text text-anchor="middle" x="386.5084" y="-373.8" font-family="Times,serif" font-size="14.00" fill="#000000">[root] module.meta.output.ci_access_key_id</text>
</g>
<!-- [root] meta.count&#45;boundary (count boundary fixup)&#45;&gt;[root] module.meta.output.ci_access_key_id -->
<g id="edge4" class="edge">
<title>[root] meta.count&#45;boundary (count boundary fixup)&#45;&gt;[root] module.meta.output.ci_access_key_id</title>
<path fill="none" stroke="#000000" d="M925.6452,-436.3727C808.0147,-423.6368 633.2187,-404.7115 514.8072,-391.891"/>
<polygon fill="#000000" stroke="#000000" points="514.9188,-388.3827 504.6001,-390.7859 514.1652,-395.342 514.9188,-388.3827"/>
</g>
<!-- [root] module.meta.output.ci_secret_access_key -->
<g id="node18" class="node">
<title>[root] module.meta.output.ci_secret_access_key</title>
<ellipse fill="none" stroke="#000000" cx="752.5084" cy="-378" rx="181.0343" ry="18"/>
<text text-anchor="middle" x="752.5084" y="-373.8" font-family="Times,serif" font-size="14.00" fill="#000000">[root] module.meta.output.ci_secret_access_key</text>
</g>
<!-- [root] meta.count&#45;boundary (count boundary fixup)&#45;&gt;[root] module.meta.output.ci_secret_access_key -->
<g id="edge5" class="edge">
<title>[root] meta.count&#45;boundary (count boundary fixup)&#45;&gt;[root] module.meta.output.ci_secret_access_key</title>
<path fill="none" stroke="#000000" d="M981.7835,-433.2101C936.8356,-422.3865 878.2818,-408.2866 831.5987,-397.0452"/>
<polygon fill="#000000" stroke="#000000" points="832.3679,-393.6304 821.8264,-394.692 830.7291,-400.4359 832.3679,-393.6304"/>
</g>
<!-- [root] module.meta.output.ci_user_arn -->
<g id="node19" class="node">
<title>[root] module.meta.output.ci_user_arn</title>
<ellipse fill="none" stroke="#000000" cx="474.5084" cy="-306" rx="146.799" ry="18"/>
<text text-anchor="middle" x="474.5084" y="-301.8" font-family="Times,serif" font-size="14.00" fill="#000000">[root] module.meta.output.ci_user_arn</text>
</g>
<!-- [root] meta.count&#45;boundary (count boundary fixup)&#45;&gt;[root] module.meta.output.ci_user_arn -->
<g id="edge6" class="edge">
<title>[root] meta.count&#45;boundary (count boundary fixup)&#45;&gt;[root] module.meta.output.ci_user_arn</title>
<path fill="none" stroke="#000000" d="M868.7815,-444.5521C628.157,-436.4699 232.7071,-419.6698 210.5084,-396 199.5631,-384.3294 200.3916,-372.3956 210.5084,-360 220.9048,-347.2617 299.4999,-332.2289 368.2538,-321.2633"/>
<polygon fill="#000000" stroke="#000000" points="368.9848,-324.6913 378.3172,-319.6757 367.8939,-317.7768 368.9848,-324.6913"/>
</g>
<!-- [root] module.meta.output.ci_user_name -->
<g id="node20" class="node">
<title>[root] module.meta.output.ci_user_name</title>
<ellipse fill="none" stroke="#000000" cx="154.5084" cy="-306" rx="154.5167" ry="18"/>
<text text-anchor="middle" x="154.5084" y="-301.8" font-family="Times,serif" font-size="14.00" fill="#000000">[root] module.meta.output.ci_user_name</text>
</g>
<!-- [root] meta.count&#45;boundary (count boundary fixup)&#45;&gt;[root] module.meta.output.ci_user_name -->
<g id="edge7" class="edge">
<title>[root] meta.count&#45;boundary (count boundary fixup)&#45;&gt;[root] module.meta.output.ci_user_name</title>
<path fill="none" stroke="#000000" d="M861.028,-447.9674C626.4033,-443.9235 252.1182,-431.8675 198.5084,-396 177.4859,-381.935 166.1489,-354.8054 160.2773,-333.9939"/>
<polygon fill="#000000" stroke="#000000" points="163.6117,-332.9049 157.749,-324.08 156.8288,-334.6348 163.6117,-332.9049"/>
</g>
<!-- [root] module.meta.output.meta_backend_config -->
<g id="node21" class="node">
<title>[root] module.meta.output.meta_backend_config</title>
<ellipse fill="none" stroke="#000000" cx="1454.5084" cy="-378" rx="182.9984" ry="18"/>
<text text-anchor="middle" x="1454.5084" y="-373.8" font-family="Times,serif" font-size="14.00" fill="#000000">[root] module.meta.output.meta_backend_config</text>
</g>
<!-- [root] meta.count&#45;boundary (count boundary fixup)&#45;&gt;[root] module.meta.output.meta_backend_config -->
<g id="edge8" class="edge">
<title>[root] meta.count&#45;boundary (count boundary fixup)&#45;&gt;[root] module.meta.output.meta_backend_config</title>
<path fill="none" stroke="#000000" d="M1140.9471,-434.0209C1204.6907,-422.6324 1290.3724,-407.3245 1356.0612,-395.5886"/>
<polygon fill="#000000" stroke="#000000" points="1356.7852,-399.0147 1366.0138,-393.8104 1355.5541,-392.1238 1356.7852,-399.0147"/>
</g>
<!-- [root] module.meta.output.provider_aws_config -->
<g id="node22" class="node">
<title>[root] module.meta.output.provider_aws_config</title>
<ellipse fill="none" stroke="#000000" cx="2473.5084" cy="-378" rx="180.1258" ry="18"/>
<text text-anchor="middle" x="2473.5084" y="-373.8" font-family="Times,serif" font-size="14.00" fill="#000000">[root] module.meta.output.provider_aws_config</text>
</g>
<!-- [root] meta.count&#45;boundary (count boundary fixup)&#45;&gt;[root] module.meta.output.provider_aws_config -->
<g id="edge9" class="edge">
<title>[root] meta.count&#45;boundary (count boundary fixup)&#45;&gt;[root] module.meta.output.provider_aws_config</title>
<path fill="none" stroke="#000000" d="M1235.2435,-444.8891C1476.3126,-437.5106 1912.4454,-421.8476 2284.5084,-396 2301.5503,-394.8161 2319.4385,-393.3738 2337.1318,-391.8262"/>
<polygon fill="#000000" stroke="#000000" points="2337.8676,-395.2747 2347.5189,-390.904 2337.2485,-388.3021 2337.8676,-395.2747"/>
</g>
<!-- [root] module.meta.output.backend_config&#45;&gt;[root] module.meta.data.template_file.backend_config -->
<g id="edge50" class="edge">
<title>[root] module.meta.output.backend_config&#45;&gt;[root] module.meta.data.template_file.backend_config</title>
<path fill="none" stroke="#000000" d="M1887.8738,-361.8418C1934.3975,-351.3081 1995.4784,-337.4785 2045.2141,-326.2176"/>
<polygon fill="#000000" stroke="#000000" points="2046.022,-329.6233 2055.0022,-324.0014 2044.4762,-322.7961 2046.022,-329.6233"/>
</g>
<!-- [root] module.meta.output.ci_access_key_id&#45;&gt;[root] module.meta.aws_iam_access_key.ci -->
<g id="edge51" class="edge">
<title>[root] module.meta.output.ci_access_key_id&#45;&gt;[root] module.meta.aws_iam_access_key.ci</title>
<path fill="none" stroke="#000000" d="M466.8286,-362.1993C520.9344,-351.5555 592.7457,-337.4287 650.8335,-326.0016"/>
<polygon fill="#000000" stroke="#000000" points="651.6347,-329.4112 660.771,-324.0467 650.2835,-322.5428 651.6347,-329.4112"/>
</g>
<!-- [root] module.meta.output.ci_secret_access_key&#45;&gt;[root] module.meta.aws_iam_access_key.ci -->
<g id="edge52" class="edge">
<title>[root] module.meta.output.ci_secret_access_key&#45;&gt;[root] module.meta.aws_iam_access_key.ci</title>
<path fill="none" stroke="#000000" d="M752.5084,-359.8314C752.5084,-352.131 752.5084,-342.9743 752.5084,-334.4166"/>
<polygon fill="#000000" stroke="#000000" points="756.0085,-334.4132 752.5084,-324.4133 749.0085,-334.4133 756.0085,-334.4132"/>
</g>
<!-- [root] module.meta.output.ci_user_arn&#45;&gt;[root] module.meta.aws_iam_user.ci -->
<g id="edge53" class="edge">
<title>[root] module.meta.output.ci_user_arn&#45;&gt;[root] module.meta.aws_iam_user.ci</title>
<path fill="none" stroke="#000000" d="M489.6489,-287.8314C496.63,-279.454 505.0474,-269.3531 512.6959,-260.1749"/>
<polygon fill="#000000" stroke="#000000" points="515.4509,-262.3362 519.164,-252.4133 510.0733,-257.8548 515.4509,-262.3362"/>
</g>
<!-- [root] module.meta.output.ci_user_name&#45;&gt;[root] module.meta.aws_iam_user.ci -->
<g id="edge54" class="edge">
<title>[root] module.meta.output.ci_user_name&#45;&gt;[root] module.meta.aws_iam_user.ci</title>
<path fill="none" stroke="#000000" d="M235.5618,-290.6425C292.8594,-279.7861 370.122,-265.1469 431.7461,-253.4707"/>
<polygon fill="#000000" stroke="#000000" points="432.7128,-256.8499 441.8864,-251.5494 431.4096,-249.9723 432.7128,-256.8499"/>
</g>
<!-- [root] module.meta.output.meta_backend_config&#45;&gt;[root] module.meta.data.template_file.meta_backend_config -->
<g id="edge55" class="edge">
<title>[root] module.meta.output.meta_backend_config&#45;&gt;[root] module.meta.data.template_file.meta_backend_config</title>
<path fill="none" stroke="#000000" d="M1528.3817,-361.4817C1575.2935,-350.9921 1636.3281,-337.3447 1686.1235,-326.2103"/>
<polygon fill="#000000" stroke="#000000" points="1686.9299,-329.6165 1695.9252,-324.0186 1685.4024,-322.7852 1686.9299,-329.6165"/>
</g>
<!-- [root] module.meta.output.provider_aws_config&#45;&gt;[root] module.meta.data.template_file.provider_aws_config -->
<g id="edge56" class="edge">
<title>[root] module.meta.output.provider_aws_config&#45;&gt;[root] module.meta.data.template_file.provider_aws_config</title>
<path fill="none" stroke="#000000" d="M2473.5084,-359.8314C2473.5084,-352.131 2473.5084,-342.9743 2473.5084,-334.4166"/>
<polygon fill="#000000" stroke="#000000" points="2477.0085,-334.4132 2473.5084,-324.4133 2470.0085,-334.4133 2477.0085,-334.4132"/>
</g>
<!-- [root] module.meta.var.project -->
<g id="node29" class="node">
<title>[root] module.meta.var.project</title>
<ellipse fill="none" stroke="#000000" cx="1122.5084" cy="-18" rx="118.3174" ry="18"/>
<text text-anchor="middle" x="1122.5084" y="-13.8" font-family="Times,serif" font-size="14.00" fill="#000000">[root] module.meta.var.project</text>
</g>
<!-- [root] module.meta.local.name_prefix&#45;&gt;[root] module.meta.var.project -->
<g id="edge47" class="edge">
<title>[root] module.meta.local.name_prefix&#45;&gt;[root] module.meta.var.project</title>
<path fill="none" stroke="#000000" d="M919.2313,-143.6694C918.8694,-123.5318 921.5172,-91.4694 939.5084,-72 953.4529,-56.9097 996.8559,-43.764 1037.8923,-34.2218"/>
<polygon fill="#000000" stroke="#000000" points="1038.7218,-37.6226 1047.6998,-31.9972 1037.1733,-30.796 1038.7218,-37.6226"/>
</g>
<!-- [root] module.meta.local.default_tags -->
<g id="node28" class="node">
<title>[root] module.meta.local.default_tags</title>
<ellipse fill="none" stroke="#000000" cx="1325.5084" cy="-90" rx="143.4074" ry="18"/>
<text text-anchor="middle" x="1325.5084" y="-85.8" font-family="Times,serif" font-size="14.00" fill="#000000">[root] module.meta.local.default_tags</text>
</g>
<!-- [root] module.meta.local.tags&#45;&gt;[root] module.meta.local.default_tags -->
<g id="edge48" class="edge">
<title>[root] module.meta.local.tags&#45;&gt;[root] module.meta.local.default_tags</title>
<path fill="none" stroke="#000000" d="M1260.7668,-144.2022C1271.5169,-135.2021 1284.7273,-124.1423 1296.4055,-114.3652"/>
<polygon fill="#000000" stroke="#000000" points="1298.7756,-116.9456 1304.1964,-107.8425 1294.282,-111.5783 1298.7756,-116.9456"/>
</g>
<!-- [root] module.meta.var.tags -->
<g id="node30" class="node">
<title>[root] module.meta.var.tags</title>
<ellipse fill="none" stroke="#000000" cx="1056.5084" cy="-90" rx="107.7028" ry="18"/>
<text text-anchor="middle" x="1056.5084" y="-85.8" font-family="Times,serif" font-size="14.00" fill="#000000">[root] module.meta.var.tags</text>
</g>
<!-- [root] module.meta.local.tags&#45;&gt;[root] module.meta.var.tags -->
<g id="edge49" class="edge">
<title>[root] module.meta.local.tags&#45;&gt;[root] module.meta.var.tags</title>
<path fill="none" stroke="#000000" d="M1196.603,-145.1192C1170.2372,-134.7458 1136.2879,-121.3887 1108.413,-110.4215"/>
<polygon fill="#000000" stroke="#000000" points="1109.4161,-107.0551 1098.829,-106.6507 1106.8532,-113.569 1109.4161,-107.0551"/>
</g>
<!-- [root] module.meta.local.default_tags&#45;&gt;[root] module.meta.var.project -->
<g id="edge46" class="edge">
<title>[root] module.meta.local.default_tags&#45;&gt;[root] module.meta.var.project</title>
<path fill="none" stroke="#000000" d="M1277.6573,-73.0282C1248.1471,-62.5615 1210.1464,-49.0835 1179.1398,-38.086"/>
<polygon fill="#000000" stroke="#000000" points="1179.9328,-34.6537 1169.338,-34.6095 1177.5928,-41.251 1179.9328,-34.6537"/>
</g>
<!-- [root] provider.aws (close) -->
<g id="node31" class="node">
<title>[root] provider.aws (close)</title>
<ellipse fill="none" stroke="#000000" cx="2005.5084" cy="-450" rx="104.3276" ry="18"/>
<text text-anchor="middle" x="2005.5084" y="-445.8" font-family="Times,serif" font-size="14.00" fill="#000000">[root] provider.aws (close)</text>
</g>
<!-- [root] provider.aws (close)&#45;&gt;[root] module.meta.aws_dynamodb_table.state_lock -->
<g id="edge57" class="edge">
<title>[root] provider.aws (close)&#45;&gt;[root] module.meta.aws_dynamodb_table.state_lock</title>
<path fill="none" stroke="#000000" d="M2007.5386,-431.9412C2008.7597,-411.1095 2007.0634,-377.4888 1986.5084,-360 1921.9519,-305.0736 1308.6182,-334.4869 1224.5084,-324 1097.3053,-308.1401 952.0595,-275.7653 863.8527,-254.4799"/>
<polygon fill="#000000" stroke="#000000" points="864.456,-251.0249 853.9128,-252.07 862.8065,-257.8278 864.456,-251.0249"/>
</g>
<!-- [root] provider.aws (close)&#45;&gt;[root] module.meta.aws_iam_access_key.ci -->
<g id="edge58" class="edge">
<title>[root] provider.aws (close)&#45;&gt;[root] module.meta.aws_iam_access_key.ci</title>
<path fill="none" stroke="#000000" d="M1903.063,-446.6359C1667.7715,-438.5879 1102.4572,-417.303 1018.5084,-396 982.281,-386.8069 977.4928,-373.1539 942.5084,-360 908.4732,-347.203 870.0368,-335.7429 836.6839,-326.7075"/>
<polygon fill="#000000" stroke="#000000" points="837.5297,-323.3108 826.9646,-324.1038 835.7183,-330.0723 837.5297,-323.3108"/>
</g>
<!-- [root] provider.aws (close)&#45;&gt;[root] module.meta.aws_iam_user_policy.ci -->
<g id="edge59" class="edge">
<title>[root] provider.aws (close)&#45;&gt;[root] module.meta.aws_iam_user_policy.ci</title>
<path fill="none" stroke="#000000" d="M1905.2469,-445.0712C1764.3257,-437.6155 1499.4589,-421.6747 1264.2354,-396.149"/>
<polygon fill="#000000" stroke="#000000" points="1264.4394,-392.6506 1254.1182,-395.0432 1263.6787,-399.6091 1264.4394,-392.6506"/>
</g>
<!-- [root] provider.aws (close)&#45;&gt;[root] module.meta.data.aws_caller_identity.current -->
<g id="edge60" class="edge">
<title>[root] provider.aws (close)&#45;&gt;[root] module.meta.data.aws_caller_identity.current</title>
<path fill="none" stroke="#000000" d="M2108.861,-447.3356C2272.615,-442.1914 2583.9602,-428.3991 2689.5084,-396 2789.2883,-365.3715 2892.3674,-295.4896 2942.8133,-258.3123"/>
<polygon fill="#000000" stroke="#000000" points="2945.0934,-260.9784 2951.0291,-252.2024 2940.9161,-255.3614 2945.0934,-260.9784"/>
</g>
<!-- [root] provider.aws (close)&#45;&gt;[root] module.meta.data.aws_region.current -->
<g id="edge61" class="edge">
<title>[root] provider.aws (close)&#45;&gt;[root] module.meta.data.aws_region.current</title>
<path fill="none" stroke="#000000" d="M2109.0879,-447.9032C2283.485,-443.4365 2620.8894,-430.4147 2662.5084,-396 2702.0237,-363.3248 2708.4978,-299.2164 2708.6696,-262.1965"/>
<polygon fill="#000000" stroke="#000000" points="2712.1683,-262.0438 2708.5619,-252.0817 2705.1686,-262.1184 2712.1683,-262.0438"/>
</g>
<!-- [root] provider.template (close) -->
<g id="node32" class="node">
<title>[root] provider.template (close)</title>
<ellipse fill="none" stroke="#000000" cx="2154.5084" cy="-378" rx="120.715" ry="18"/>
<text text-anchor="middle" x="2154.5084" y="-373.8" font-family="Times,serif" font-size="14.00" fill="#000000">[root] provider.template (close)</text>
</g>
<!-- [root] provider.template (close)&#45;&gt;[root] module.meta.data.template_file.backend_config -->
<g id="edge62" class="edge">
<title>[root] provider.template (close)&#45;&gt;[root] module.meta.data.template_file.backend_config</title>
<path fill="none" stroke="#000000" d="M2149.4615,-359.8314C2147.299,-352.0463 2144.7231,-342.7729 2142.3236,-334.1347"/>
<polygon fill="#000000" stroke="#000000" points="2145.672,-333.1117 2139.6232,-324.4133 2138.9274,-334.9852 2145.672,-333.1117"/>
</g>
<!-- [root] provider.template (close)&#45;&gt;[root] module.meta.data.template_file.meta_backend_config -->
<g id="edge63" class="edge">
<title>[root] provider.template (close)&#45;&gt;[root] module.meta.data.template_file.meta_backend_config</title>
<path fill="none" stroke="#000000" d="M2079.8277,-363.7751C2023.0513,-352.9606 1944.2279,-337.9466 1881.1651,-325.9346"/>
<polygon fill="#000000" stroke="#000000" points="1881.6633,-322.4667 1871.185,-324.0336 1880.3534,-329.343 1881.6633,-322.4667"/>
</g>
<!-- [root] provider.template (close)&#45;&gt;[root] module.meta.data.template_file.provider_aws_config -->
<g id="edge64" class="edge">
<title>[root] provider.template (close)&#45;&gt;[root] module.meta.data.template_file.provider_aws_config</title>
<path fill="none" stroke="#000000" d="M2221.3812,-362.9064C2268.581,-352.2532 2332.3419,-337.862 2383.9333,-326.2176"/>
<polygon fill="#000000" stroke="#000000" points="2384.765,-329.618 2393.749,-324.0021 2383.2238,-322.7897 2384.765,-329.618"/>
</g>
<!-- [root] root -->
<g id="node33" class="node">
<title>[root] root</title>
<ellipse fill="none" stroke="#000000" cx="2005.5084" cy="-522" rx="46.8976" ry="18"/>
<text text-anchor="middle" x="2005.5084" y="-517.8" font-family="Times,serif" font-size="14.00" fill="#000000">[root] root</text>
</g>
<!-- [root] root&#45;&gt;[root] meta.count&#45;boundary (count boundary fixup) -->
<g id="edge65" class="edge">
<title>[root] root&#45;&gt;[root] meta.count&#45;boundary (count boundary fixup)</title>
<path fill="none" stroke="#000000" d="M1959.495,-518.5273C1826.0658,-508.4572 1434.347,-478.8935 1211.4483,-462.0709"/>
<polygon fill="#000000" stroke="#000000" points="1211.5271,-458.567 1201.2921,-461.3044 1211.0003,-465.5472 1211.5271,-458.567"/>
</g>
<!-- [root] root&#45;&gt;[root] provider.aws (close) -->
<g id="edge66" class="edge">
<title>[root] root&#45;&gt;[root] provider.aws (close)</title>
<path fill="none" stroke="#000000" d="M2005.5084,-503.8314C2005.5084,-496.131 2005.5084,-486.9743 2005.5084,-478.4166"/>
<polygon fill="#000000" stroke="#000000" points="2009.0085,-478.4132 2005.5084,-468.4133 2002.0085,-478.4133 2009.0085,-478.4132"/>
</g>
<!-- [root] root&#45;&gt;[root] provider.template (close) -->
<g id="edge67" class="edge">
<title>[root] root&#45;&gt;[root] provider.template (close)</title>
<path fill="none" stroke="#000000" d="M2043.9289,-511.57C2068.1142,-503.2675 2098.4411,-489.4221 2118.5084,-468 2134.5995,-450.8224 2143.8538,-425.5505 2148.9386,-406.1561"/>
<polygon fill="#000000" stroke="#000000" points="2152.3617,-406.8905 2151.2917,-396.3499 2145.5549,-405.2572 2152.3617,-406.8905"/>
</g>
</g>
</svg>
